<svg width="698" height="627" viewBox="0 0 698 627" fill="none" xmlns="http://www.w3.org/2000/svg">
<rect width="698" height="627" fill="#2E3749"/>
<rect width="350" height="269" transform="translate(174 179)" fill="#2E3749"/>
<rect x="207.5" y="388.268" width="283" height="9" rx="4.5" fill="#172031" stroke="#5D6679"/>
<line x1="222.5" y1="373.768" x2="222.5" y2="382.768" stroke="#5D6679"/>
<line x1="232.389" y1="370.768" x2="232.389" y2="382.768" stroke="#5D6679"/>
<line x1="242.277" y1="366.768" x2="242.277" y2="382.768" stroke="#5D6679"/>
<line x1="252.166" y1="345.768" x2="252.166" y2="382.768" stroke="#5D6679"/>
<line x1="262.055" y1="366.768" x2="262.055" y2="382.768" stroke="#5D6679"/>
<line x1="271.945" y1="366.768" x2="271.945" y2="382.768" stroke="#5D6679"/>
<line x1="281.834" y1="366.768" x2="281.834" y2="382.768" stroke="#5D6679"/>
<line x1="291.723" y1="366.768" x2="291.723" y2="382.768" stroke="#5D6679"/>
<line x1="301.611" y1="345.768" x2="301.611" y2="382.768" stroke="#5D6679"/>
<line x1="311.5" y1="366.768" x2="311.5" y2="382.768" stroke="#5D6679"/>
<line x1="321.389" y1="366.768" x2="321.389" y2="382.768" stroke="#5D6679"/>
<line x1="331.277" y1="366.768" x2="331.277" y2="382.768" stroke="#5D6679"/>
<line x1="341.166" y1="366.768" x2="341.166" y2="382.768" stroke="#5D6679"/>
<path d="M352.055 345.768C352.055 345.491 351.831 345.268 351.555 345.268C351.279 345.268 351.055 345.491 351.055 345.768L351.555 345.768L352.055 345.768ZM351.555 345.768L351.055 345.768L351.055 382.768L351.555 382.768L352.055 382.768L352.055 345.768L351.555 345.768Z" fill="#5D6679"/>
<line x1="360.945" y1="366.768" x2="360.945" y2="382.768" stroke="#5D6679"/>
<line x1="370.834" y1="366.768" x2="370.834" y2="382.768" stroke="#5D6679"/>
<line x1="380.723" y1="366.768" x2="380.723" y2="382.768" stroke="#5D6679"/>
<line x1="390.611" y1="366.768" x2="390.611" y2="382.768" stroke="#5D6679"/>
<line x1="400.5" y1="345.768" x2="400.5" y2="382.768" stroke="#5D6679"/>
<line x1="410.389" y1="366.768" x2="410.389" y2="382.768" stroke="#5D6679"/>
<line x1="420.277" y1="366.768" x2="420.277" y2="382.768" stroke="#5D6679"/>
<line x1="430.166" y1="366.768" x2="430.166" y2="382.768" stroke="#5D6679"/>
<line x1="440.055" y1="366.768" x2="440.055" y2="382.768" stroke="#5D6679"/>
<path d="M449.945 354.268L449.945 382.768" stroke="#5D6679"/>
<line x1="459.834" y1="366.768" x2="459.834" y2="382.768" stroke="#5D6679"/>
<line x1="469.723" y1="371.768" x2="469.723" y2="382.768" stroke="#5D6679"/>
<path d="M479.611 374.768L479.611 382.768" stroke="#5D6679"/>
<circle cx="287.5" cy="393.268" r="10.5" fill="#82D2FF" stroke="white" stroke-width="2"/>
<path d="M400 338C402.209 338 404 339.791 404 342V364.388C404 366.597 402.209 368.388 400 368.388H306.896L288 375.768V342C288 339.791 289.791 338 292 338H400Z" fill="#172031"/>
<path d="M312.27 348.066L312.046 349.83H309.652V357.768H307.356V349.83H304.85V348.066H312.27ZM318.869 353.904C318.869 354.212 318.855 354.478 318.827 354.702H314.221C314.295 355.327 314.473 355.766 314.753 356.018C315.033 356.27 315.42 356.396 315.915 356.396C316.213 356.396 316.503 356.344 316.783 356.242C317.063 356.13 317.366 355.962 317.693 355.738L318.603 356.97C317.735 357.66 316.769 358.006 315.705 358.006C314.501 358.006 313.577 357.651 312.933 356.942C312.289 356.232 311.967 355.28 311.967 354.086C311.967 353.33 312.102 352.653 312.373 352.056C312.643 351.449 313.04 350.973 313.563 350.628C314.085 350.273 314.711 350.096 315.439 350.096C316.512 350.096 317.352 350.432 317.959 351.104C318.565 351.776 318.869 352.709 318.869 353.904ZM316.699 353.274C316.68 352.135 316.279 351.566 315.495 351.566C315.112 351.566 314.813 351.706 314.599 351.986C314.393 352.266 314.267 352.728 314.221 353.372H316.699V353.274ZM328.329 350.096C328.917 350.096 329.388 350.296 329.743 350.698C330.098 351.09 330.275 351.636 330.275 352.336V357.768H328.063V352.714C328.063 352.051 327.853 351.72 327.433 351.72C327.2 351.72 326.994 351.799 326.817 351.958C326.64 352.116 326.467 352.359 326.299 352.686V357.768H324.087V352.714C324.087 352.051 323.877 351.72 323.457 351.72C323.233 351.72 323.028 351.804 322.841 351.972C322.664 352.13 322.491 352.368 322.323 352.686V357.768H320.111V350.334H322.043L322.197 351.202C322.486 350.828 322.804 350.553 323.149 350.376C323.504 350.189 323.905 350.096 324.353 350.096C324.773 350.096 325.132 350.198 325.431 350.404C325.739 350.609 325.963 350.898 326.103 351.272C326.402 350.87 326.728 350.576 327.083 350.39C327.447 350.194 327.862 350.096 328.329 350.096ZM336.137 350.096C337.071 350.096 337.766 350.441 338.223 351.132C338.681 351.822 338.909 352.788 338.909 354.03C338.909 354.795 338.788 355.481 338.545 356.088C338.312 356.685 337.971 357.156 337.523 357.502C337.075 357.838 336.553 358.006 335.955 358.006C335.209 358.006 334.607 357.749 334.149 357.236V360.638L331.937 360.876V350.334H333.883L333.995 351.16C334.285 350.796 334.616 350.53 334.989 350.362C335.363 350.184 335.745 350.096 336.137 350.096ZM335.283 356.382C336.17 356.382 336.613 355.607 336.613 354.058C336.613 353.18 336.515 352.574 336.319 352.238C336.123 351.892 335.829 351.72 335.437 351.72C335.185 351.72 334.947 351.794 334.723 351.944C334.509 352.093 334.317 352.308 334.149 352.588V355.724C334.448 356.162 334.826 356.382 335.283 356.382ZM346.773 353.904C346.773 354.212 346.759 354.478 346.731 354.702H342.125C342.2 355.327 342.377 355.766 342.657 356.018C342.937 356.27 343.324 356.396 343.819 356.396C344.118 356.396 344.407 356.344 344.687 356.242C344.967 356.13 345.27 355.962 345.597 355.738L346.507 356.97C345.639 357.66 344.673 358.006 343.609 358.006C342.405 358.006 341.481 357.651 340.837 356.942C340.193 356.232 339.871 355.28 339.871 354.086C339.871 353.33 340.006 352.653 340.277 352.056C340.548 351.449 340.944 350.973 341.467 350.628C341.99 350.273 342.615 350.096 343.343 350.096C344.416 350.096 345.256 350.432 345.863 351.104C346.47 351.776 346.773 352.709 346.773 353.904ZM344.603 353.274C344.584 352.135 344.183 351.566 343.399 351.566C343.016 351.566 342.718 351.706 342.503 351.986C342.298 352.266 342.172 352.728 342.125 353.372H344.603V353.274ZM352.047 350.124C352.318 350.124 352.565 350.156 352.789 350.222L352.439 352.364C352.159 352.298 351.935 352.266 351.767 352.266C351.329 352.266 350.993 352.42 350.759 352.728C350.535 353.026 350.358 353.479 350.227 354.086V357.768H348.015V350.334H349.947L350.129 351.776C350.297 351.262 350.549 350.861 350.885 350.572C351.231 350.273 351.618 350.124 352.047 350.124ZM359.05 355.612C359.05 355.892 359.088 356.097 359.162 356.228C359.246 356.358 359.377 356.456 359.554 356.522L359.092 357.964C358.635 357.926 358.262 357.828 357.972 357.67C357.683 357.502 357.459 357.24 357.3 356.886C356.815 357.632 356.068 358.006 355.06 358.006C354.323 358.006 353.735 357.791 353.296 357.362C352.858 356.932 352.638 356.372 352.638 355.682C352.638 354.87 352.937 354.249 353.534 353.82C354.132 353.39 354.995 353.176 356.124 353.176H356.88V352.854C356.88 352.415 356.787 352.116 356.6 351.958C356.414 351.79 356.087 351.706 355.62 351.706C355.378 351.706 355.084 351.743 354.738 351.818C354.393 351.883 354.038 351.976 353.674 352.098L353.17 350.642C353.637 350.464 354.113 350.329 354.598 350.236C355.093 350.142 355.55 350.096 355.97 350.096C357.034 350.096 357.814 350.315 358.308 350.754C358.803 351.192 359.05 351.85 359.05 352.728V355.612ZM355.704 356.424C356.208 356.424 356.6 356.186 356.88 355.71V354.394H356.334C355.83 354.394 355.452 354.482 355.2 354.66C354.958 354.837 354.836 355.112 354.836 355.486C354.836 355.784 354.911 356.018 355.06 356.186C355.219 356.344 355.434 356.424 355.704 356.424ZM365.474 357.418C365.204 357.604 364.886 357.749 364.522 357.852C364.168 357.954 363.813 358.006 363.458 358.006C361.834 357.996 361.022 357.1 361.022 355.318V351.874H359.972V350.334H361.022V348.724L363.234 348.472V350.334H364.942L364.704 351.874H363.234V355.29C363.234 355.635 363.29 355.882 363.402 356.032C363.514 356.181 363.692 356.256 363.934 356.256C364.186 356.256 364.452 356.176 364.732 356.018L365.474 357.418ZM372.485 357.768H370.567L370.469 356.83C369.927 357.614 369.176 358.006 368.215 358.006C367.533 358.006 367.015 357.8 366.661 357.39C366.315 356.979 366.143 356.405 366.143 355.668V350.334H368.355V355.388C368.355 355.752 368.411 356.008 368.523 356.158C368.644 356.298 368.826 356.368 369.069 356.368C369.535 356.368 369.937 356.078 370.273 355.5V350.334H372.485V357.768ZM378.256 350.124C378.527 350.124 378.774 350.156 378.998 350.222L378.648 352.364C378.368 352.298 378.144 352.266 377.976 352.266C377.538 352.266 377.202 352.42 376.968 352.728C376.744 353.026 376.567 353.479 376.436 354.086V357.768H374.224V350.334H376.156L376.338 351.776C376.506 351.262 376.758 350.861 377.094 350.572C377.44 350.273 377.827 350.124 378.256 350.124ZM385.902 353.904C385.902 354.212 385.888 354.478 385.86 354.702H381.254C381.328 355.327 381.506 355.766 381.786 356.018C382.066 356.27 382.453 356.396 382.948 356.396C383.246 356.396 383.536 356.344 383.816 356.242C384.096 356.13 384.399 355.962 384.726 355.738L385.636 356.97C384.768 357.66 383.802 358.006 382.738 358.006C381.534 358.006 380.61 357.651 379.966 356.942C379.322 356.232 379 355.28 379 354.086C379 353.33 379.135 352.653 379.406 352.056C379.676 351.449 380.073 350.973 380.596 350.628C381.118 350.273 381.744 350.096 382.472 350.096C383.545 350.096 384.385 350.432 384.992 351.104C385.598 351.776 385.902 352.709 385.902 353.904ZM383.732 353.274C383.713 352.135 383.312 351.566 382.528 351.566C382.145 351.566 381.846 351.706 381.632 351.986C381.426 352.266 381.3 352.728 381.254 353.372H383.732V353.274Z" fill="white"/>
<path d="M313.761 237.6C316.481 237.6 318.801 238.12 320.721 239.16C322.681 240.16 324.161 241.52 325.161 243.24C326.161 244.96 326.661 246.88 326.661 249C326.661 251.16 326.261 253.24 325.461 255.24C324.661 257.2 323.241 259.46 321.201 262.02C319.201 264.58 316.261 267.86 312.381 271.86H327.441L326.481 279H302.241V272.4C306.481 267.72 309.621 264.1 311.661 261.54C313.741 258.94 315.181 256.78 315.981 255.06C316.781 253.3 317.181 251.52 317.181 249.72C317.181 248.12 316.781 246.9 315.981 246.06C315.221 245.18 314.141 244.74 312.741 244.74C311.501 244.74 310.401 245.06 309.441 245.7C308.481 246.3 307.421 247.32 306.261 248.76L300.921 244.56C304.201 239.92 308.481 237.6 313.761 237.6ZM348.998 238.5V279H339.938V247.5L332.258 252.72L328.178 246.72L340.718 238.5H348.998ZM360.029 269.4C361.549 269.4 362.809 269.92 363.809 270.96C364.809 272 365.309 273.24 365.309 274.68C365.309 276.16 364.809 277.42 363.809 278.46C362.809 279.5 361.549 280.02 360.029 280.02C358.509 280.02 357.249 279.5 356.249 278.46C355.289 277.42 354.809 276.16 354.809 274.68C354.809 273.24 355.309 272 356.309 270.96C357.309 269.92 358.549 269.4 360.029 269.4ZM392.446 245.1H379.246V253.92C381.006 252.96 382.846 252.48 384.766 252.48C387.846 252.48 390.346 253.64 392.266 255.96C394.226 258.24 395.206 261.46 395.206 265.62C395.206 268.46 394.606 270.98 393.406 273.18C392.206 275.34 390.486 277.02 388.246 278.22C386.046 279.42 383.466 280.02 380.506 280.02C375.506 280.02 371.366 278 368.086 273.96L373.186 269.34C374.226 270.54 375.286 271.46 376.366 272.1C377.486 272.74 378.746 273.06 380.146 273.06C381.986 273.06 383.386 272.44 384.346 271.2C385.346 269.96 385.846 268.12 385.846 265.68C385.846 263.2 385.426 261.44 384.586 260.4C383.746 259.36 382.566 258.84 381.046 258.84C380.286 258.84 379.566 258.94 378.886 259.14C378.246 259.34 377.526 259.7 376.726 260.22H370.546V238.44H393.466L392.446 245.1Z" fill="white"/>
<path d="M341.878 197.92C343.328 197.92 344.566 198.197 345.59 198.752C346.635 199.285 347.424 200.011 347.958 200.928C348.491 201.845 348.758 202.869 348.758 204C348.758 205.152 348.544 206.261 348.118 207.328C347.691 208.373 346.934 209.579 345.846 210.944C344.779 212.309 343.211 214.059 341.142 216.192H349.174L348.662 220H335.734V216.48C337.995 213.984 339.67 212.053 340.758 210.688C341.867 209.301 342.635 208.149 343.062 207.232C343.488 206.293 343.702 205.344 343.702 204.384C343.702 203.531 343.488 202.88 343.062 202.432C342.656 201.963 342.08 201.728 341.334 201.728C340.672 201.728 340.086 201.899 339.574 202.24C339.062 202.56 338.496 203.104 337.878 203.872L335.03 201.632C336.779 199.157 339.062 197.92 341.878 197.92ZM360.671 198.4V220H355.839V203.2L351.743 205.984L349.567 202.784L356.255 198.4H360.671Z" fill="#5D6679"/>
<path d="M340.972 295.92C342.422 295.92 343.66 296.197 344.684 296.752C345.729 297.285 346.518 298.011 347.052 298.928C347.585 299.845 347.852 300.869 347.852 302C347.852 303.152 347.638 304.261 347.212 305.328C346.785 306.373 346.028 307.579 344.94 308.944C343.873 310.309 342.305 312.059 340.236 314.192H348.268L347.756 318H334.828V314.48C337.089 311.984 338.764 310.053 339.852 308.688C340.961 307.301 341.729 306.149 342.156 305.232C342.582 304.293 342.796 303.344 342.796 302.384C342.796 301.531 342.582 300.88 342.156 300.432C341.75 299.963 341.174 299.728 340.428 299.728C339.766 299.728 339.18 299.899 338.668 300.24C338.156 300.56 337.59 301.104 336.972 301.872L334.123 299.632C335.873 297.157 338.156 295.92 340.972 295.92ZM355.784 295.92C357.235 295.92 358.472 296.197 359.496 296.752C360.541 297.285 361.331 298.011 361.864 298.928C362.397 299.845 362.664 300.869 362.664 302C362.664 303.152 362.451 304.261 362.024 305.328C361.597 306.373 360.84 307.579 359.752 308.944C358.685 310.309 357.117 312.059 355.048 314.192H363.08L362.568 318H349.64V314.48C351.901 311.984 353.576 310.053 354.664 308.688C355.773 307.301 356.541 306.149 356.968 305.232C357.395 304.293 357.608 303.344 357.608 302.384C357.608 301.531 357.395 300.88 356.968 300.432C356.563 299.963 355.987 299.728 355.24 299.728C354.579 299.728 353.992 299.899 353.48 300.24C352.968 300.56 352.403 301.104 351.784 301.872L348.936 299.632C350.685 297.157 352.968 295.92 355.784 295.92Z" fill="#5D6679"/>
</svg>
