<svg width="698" height="627" viewBox="0 0 698 627" fill="none" xmlns="http://www.w3.org/2000/svg">
<rect width="698" height="627" fill="#2E3749"/>
<rect width="350" height="269" transform="translate(174 179)" fill="#2E3749"/>
<path d="M462.591 306.522C463.341 306.748 464.132 306.324 464.359 305.573C464.585 304.823 464.16 304.032 463.41 303.806L463 305.164L462.591 306.522ZM403.414 287.193L403.004 288.552L462.591 306.522L463 305.164L463.41 303.806L403.824 285.835L403.414 287.193Z" fill="#5D6679"/>
<path d="M396.951 287.922L267.375 327.646" stroke="#5D6679" stroke-width="2.83744"/>
<path d="M424.15 227.527L398.844 286.977" stroke="#5D6679" stroke-width="2.83744"/>
<circle cx="400.032" cy="286.165" r="8.51231" fill="#5D6679"/>
<circle cx="287.48" cy="222.796" r="6.62069" fill="#5D6679"/>
<path d="M400.043 397.965L400.043 286.639" stroke="#5D6679" stroke-width="2.83744"/>
<path d="M345.745 340.395C337.384 349.895 340.508 359.551 340.508 359.551C340.508 359.551 341.865 363.623 345.082 365.733C350.142 369.051 361.048 365.733 361.048 365.733C361.048 365.733 378.965 360.715 388.483 348.757C398 336.799 398.934 327.935 398.934 319.573C398.934 311.21 397.627 308.702 395.948 304.27C394.268 299.838 391.095 295.74 388.483 295.74C385.349 295.74 383.537 299.448 382.977 301.677C381.826 305.273 377.733 314.204 370.566 321.162C361.608 329.858 356.196 328.52 345.745 340.395Z" fill="url(#paint0_linear_1677_20325)"/>
<g filter="url(#filter0_d_1677_20325)">
<path d="M382.978 301.677C381.827 305.273 377.734 314.204 370.567 321.162C373.629 319.996 380.075 318.364 381.365 321.162C382.978 324.659 383.964 330.841 387.187 329.06C389.765 327.635 396.093 322.141 398.935 319.573C398.935 311.211 397.628 308.702 395.949 304.27C394.269 299.838 391.096 295.74 388.484 295.74C385.35 295.74 383.538 299.448 382.978 301.677Z" fill="white"/>
</g>
<path d="M325.224 373.464C321.907 370.942 321.155 367.781 321.051 363.59C320.94 359.161 325.184 353.411 326.069 352.261C324.351 344.505 322.621 336.603 322.008 333.361C321.426 330.756 321.401 328.071 322.418 324.835C323.724 320.678 326.774 316.698 326.774 316.698C326.774 316.698 329.619 313.896 329.79 311.547C330.117 307.074 329.139 303.159 325.224 301.028C324.684 300.734 323.837 300.426 323.556 300.327C323.493 300.304 323.428 300.284 323.364 300.265C321.405 299.698 320.333 299.284 319.175 298.836C318.051 298.401 316.846 297.935 314.667 297.267C310.703 296.051 312.718 293.161 313.426 292.145C313.515 292.018 313.583 291.921 313.616 291.859C313.654 291.791 313.74 291.61 313.869 291.34L313.869 291.34C314.781 289.437 317.816 283.103 320.714 280.345L320.729 280.331C324.026 277.193 325.242 276.036 327.536 274.377L327.537 274.376C329.385 273.04 332.158 271.988 332.373 271.908C332.383 271.904 332.39 271.902 332.4 271.898C332.635 271.815 335.902 270.682 339.68 270.598C343.453 270.514 346.998 271.802 347.263 271.901L347.291 271.911L347.295 271.912C347.528 272 350.288 273.047 352.129 274.378L352.13 274.379C354.424 276.038 355.639 277.195 358.936 280.332L358.936 280.333L358.952 280.347C361.85 283.105 364.885 289.44 365.796 291.342C365.925 291.612 366.012 291.793 366.049 291.861C366.083 291.923 366.151 292.02 366.239 292.147C366.947 293.163 368.962 296.053 364.998 297.269C362.82 297.937 361.614 298.403 360.49 298.838C359.322 299.29 358.242 299.708 356.251 300.282C356.22 300.291 356.189 300.301 356.158 300.311C355.935 300.382 354.95 300.706 354.339 301.028C350.397 303.106 349.446 307.074 349.773 311.547C349.945 313.896 352.789 316.698 352.789 316.698C352.789 316.698 355.84 320.678 357.146 324.835C358.212 328.229 358.133 331.018 357.466 333.742C356.798 337.188 355.135 344.783 353.482 352.245C354.338 353.356 358.624 359.14 358.513 363.59C358.408 367.781 357.656 370.942 354.339 373.464C352.453 374.898 350.62 374.956 348.678 374.629C348.675 374.694 348.679 374.723 348.686 374.735C348.447 374.898 346.931 375.907 345.803 375.899C344.728 375.892 343.213 374.958 343.213 374.958C343.213 374.958 343.319 374.455 343.492 373.576C342.853 373.495 342.195 373.45 341.512 373.464H338.051C337.363 373.449 336.699 373.495 336.055 373.578C336.228 374.455 336.334 374.957 336.334 374.957C336.334 374.957 334.819 375.891 333.744 375.898C332.616 375.905 331.1 374.897 330.862 374.734C330.868 374.722 330.872 374.694 330.869 374.632C328.934 374.956 327.106 374.893 325.224 373.464Z" fill="#FF2C55"/>
<path d="M330.862 374.734C330.841 374.719 330.829 374.711 330.829 374.711C330.829 374.711 330.85 374.755 330.862 374.734Z" fill="#FF2C55"/>
<path d="M348.718 374.713C348.718 374.713 348.707 374.72 348.686 374.735C348.697 374.756 348.718 374.713 348.718 374.713Z" fill="#FF2C55"/>
<path d="M331.258 373.208C334.634 374.872 328.416 376.904 325.574 376.996C322.732 377.088 320.291 376.698 318.973 375.702C317.873 374.871 317.677 374.352 317.69 373.208C317.707 371.7 318.88 371.032 320.165 370.26C321.776 369.294 323.215 369.502 324.932 370.26C327.682 371.476 329.057 372.123 331.258 373.208Z" fill="#80192D"/>
<path d="M348.554 373.284C345.178 374.949 351.396 376.98 354.238 377.072C357.079 377.165 359.521 376.774 360.838 375.779C361.938 374.947 362.135 374.428 362.121 373.284C362.104 371.776 360.932 371.108 359.646 370.337C358.036 369.37 356.596 369.578 354.88 370.337C352.13 371.552 350.755 372.199 348.554 373.284Z" fill="#80192D"/>
<path d="M336.334 374.956C336.334 374.956 333.912 363.488 333.307 354.166C333.121 351.308 333.07 350.246 333.102 348.97C330.093 346.958 326.051 345.197 325.342 348.97C326.892 355.997 328.566 363.47 329.505 367.736C330.842 373.811 330.902 374.659 330.862 374.733C331.1 374.897 332.616 375.905 333.744 375.898C334.819 375.891 336.334 374.956 336.334 374.956Z" fill="#BA1F3D"/>
<path d="M339.358 375.459C339.358 377.033 337.395 378.309 334.368 378.309C331.341 378.309 329.378 377.033 329.378 375.459C329.378 373.885 331.341 371.184 334.368 371.184C337.395 371.184 339.358 373.885 339.358 375.459Z" fill="#80192D"/>
<path d="M343.213 374.958C343.213 374.958 345.634 363.49 346.24 354.168C346.426 351.31 346.477 350.247 346.445 348.972C349.454 346.96 353.496 345.199 354.205 348.972C352.655 355.999 350.981 363.472 350.042 367.738C348.705 373.813 348.645 374.661 348.685 374.735C348.447 374.899 346.931 375.907 345.803 375.9C344.728 375.893 343.213 374.958 343.213 374.958Z" fill="#BA1F3D"/>
<path d="M340.189 375.461C340.189 377.035 342.152 378.311 345.179 378.311C348.206 378.311 350.169 377.035 350.169 375.461C350.169 373.887 348.206 371.186 345.179 371.186C342.152 371.186 340.189 373.887 340.189 375.461Z" fill="#80192D"/>
<g filter="url(#filter1_d_1677_20325)">
<path d="M348.913 329.38C348.823 329.171 348.697 328.998 348.546 328.877C348.395 328.757 348.224 328.693 348.051 328.692H342.228C341.865 328.692 341.516 328.489 341.259 328.127C341.002 327.766 340.858 327.276 340.858 326.764V312.125C340.862 311.786 340.783 311.455 340.635 311.187C340.487 310.919 340.278 310.73 340.043 310.651C339.81 310.58 339.566 310.628 339.355 310.785C339.143 310.943 338.979 311.2 338.889 311.512L330.67 338.625C330.6 338.855 330.571 339.105 330.584 339.355C330.598 339.604 330.654 339.845 330.747 340.057C330.838 340.266 330.964 340.438 331.115 340.559C331.266 340.679 331.436 340.743 331.61 340.745H337.434C337.797 340.745 338.146 340.948 338.403 341.309C338.66 341.671 338.804 342.161 338.804 342.672V357.314C338.801 357.653 338.88 357.983 339.028 358.251C339.176 358.518 339.384 358.707 339.619 358.786C339.689 358.807 339.761 358.817 339.833 358.818C340.036 358.817 340.235 358.731 340.403 358.572C340.572 358.412 340.703 358.186 340.78 357.922L349.002 330.811C349.07 330.58 349.097 330.329 349.082 330.08C349.066 329.831 349.008 329.591 348.913 329.38V329.38Z" fill="white"/>
</g>
<path d="M361.544 267.791C360.848 265.318 358.979 262.478 355.653 264.679C352.012 267.645 353.098 268.592 346.929 273.834C340.761 279.077 358.504 284.043 358.504 284.043C358.504 284.043 363.868 276.052 361.544 267.791Z" fill="#FF2C55"/>
<path d="M318.482 267.791C319.178 265.318 321.046 262.478 324.373 264.679C328.013 267.645 326.927 268.592 333.096 273.834C339.265 279.077 321.521 284.043 321.521 284.043C321.521 284.043 316.157 276.052 318.482 267.791Z" fill="#FF2C55"/>
<path d="M329.09 304.462C329.854 305.179 333.656 309.23 335.144 311.296C335.659 312.012 336.327 312.801 336.966 313.307C337.604 313.811 338.661 314.18 339.833 314.182C341.006 314.18 342.063 313.811 342.701 313.307C343.34 312.801 344.008 312.012 344.523 311.296C346.011 309.23 349.812 305.179 350.577 304.462C351.611 303.491 353.022 302.52 357.067 301.468L364.13 299.16C365.254 298.785 366.278 297.422 365.813 296.169C365.556 295.476 365.338 294.959 365.061 294.568L365.192 294.921C365.645 296.18 364.646 297.547 363.549 297.924L356.655 300.24C352.707 301.295 351.33 302.27 350.32 303.244C349.574 303.965 345.863 308.03 344.411 310.103C343.908 310.822 343.256 311.614 342.632 312.122C342.01 312.628 340.978 312.998 339.833 313C338.689 312.998 337.657 312.628 337.035 312.122C336.411 311.614 335.759 310.822 335.256 310.103C333.803 308.03 330.093 303.965 329.347 303.244C328.337 302.27 326.96 301.295 323.012 300.24L316.117 297.924C315.02 297.547 314.021 296.18 314.475 294.921L314.605 294.568C314.329 294.959 314.111 295.476 313.854 296.169C313.389 297.422 314.413 298.785 315.537 299.16L322.6 301.468C326.644 302.52 328.055 303.491 329.09 304.462Z" fill="#EDEDED"/>
<path d="M335.256 310.103C333.804 308.029 330.093 303.964 329.347 303.244C328.337 302.269 326.96 301.295 323.012 300.239L316.118 297.923C315.021 297.546 314.022 296.179 314.475 294.92C315.005 293.454 315.365 292.771 316.451 292.406C319.881 291.253 323.082 294.787 326.954 295.932C330.973 297.12 333.53 296.745 335.58 299.485C337.147 301.581 336.619 301.986 336.827 304.566C336.92 305.718 338.525 306.227 339.834 306.219C341.143 306.227 342.747 305.718 342.84 304.566C343.048 301.986 342.52 301.581 344.088 299.485C346.137 296.745 348.694 297.12 352.713 295.932C356.585 294.787 359.786 291.253 363.217 292.406C364.302 292.771 364.663 293.454 365.192 294.92C365.646 296.179 364.647 297.546 363.55 297.923L356.655 300.239C352.707 301.295 351.33 302.269 350.32 303.244C349.574 303.964 345.864 308.029 344.411 310.103C343.908 310.821 343.256 311.613 342.632 312.121C342.01 312.627 340.978 312.997 339.834 312.999C338.689 312.997 337.657 312.627 337.035 312.121C336.411 311.613 335.759 310.821 335.256 310.103Z" fill="white"/>
<path fill-rule="evenodd" clip-rule="evenodd" d="M342.922 308.456C343.189 308.902 343.047 309.482 342.604 309.751C341.671 310.318 340.914 310.526 339.824 310.515C338.78 310.504 338.057 310.296 337.165 309.749C336.723 309.478 336.583 308.898 336.851 308.453C337.12 308.008 337.695 307.867 338.137 308.137C338.742 308.508 339.135 308.622 339.843 308.629C340.586 308.637 341.002 308.522 341.638 308.136C342.08 307.867 342.655 308.01 342.922 308.456Z" fill="#172031"/>
<path d="M323.514 284.869C322.285 286.01 321.81 286.84 320.914 288.224C320.116 289.458 318.297 291.554 317.149 292.235C320.322 291.724 323.347 294.866 326.956 295.933C330.975 297.122 333.532 296.747 335.581 299.486C336.343 300.505 336.61 301.124 336.707 301.788C336.771 300.743 336.87 299.684 336.924 298.352C336.994 296.652 336.885 295.609 336.717 293.862C336.598 292.626 336.509 290.71 336.509 290.71C336.509 290.71 336.448 287.623 335.497 285.971C334.694 284.575 333.972 283.785 332.454 283.069C330.954 282.361 330.162 282.149 328.192 282.489C326.144 282.841 324.623 283.839 323.514 284.869Z" fill="#BA1F3D"/>
<path d="M356.155 284.869C357.384 286.01 357.859 286.84 358.755 288.224C359.553 289.458 361.372 291.554 362.52 292.235C359.347 291.724 356.322 294.866 352.713 295.933C348.694 297.122 346.137 296.747 344.088 299.486C343.326 300.505 343.059 301.124 342.962 301.788C342.898 300.743 342.799 299.684 342.745 298.352C342.675 296.652 342.784 295.609 342.952 293.862C343.071 292.626 343.16 290.71 343.16 290.71C343.16 290.71 343.221 287.623 344.172 285.971C344.975 284.575 345.697 283.785 347.215 283.069C348.715 282.361 349.507 282.149 351.477 282.489C353.525 282.841 355.046 283.839 356.155 284.869Z" fill="#BA1F3D"/>
<path d="M349.087 294.692C350.465 294.692 351.582 293.566 351.582 292.177C351.582 290.788 350.465 289.662 349.087 289.662C347.709 289.662 346.592 290.788 346.592 292.177C346.592 293.566 347.709 294.692 349.087 294.692Z" fill="#172031"/>
<path d="M330.789 294.692C332.167 294.692 333.284 293.566 333.284 292.177C333.284 290.788 332.167 289.662 330.789 289.662C329.411 289.662 328.294 290.788 328.294 292.177C328.294 293.566 329.411 294.692 330.789 294.692Z" fill="#172031"/>
<path d="M339.834 306.219C341.158 306.231 342.881 305.905 342.881 304.297C342.881 303.562 342.952 302.905 342.952 302.284C342.952 301.663 336.715 301.663 336.715 302.284C336.715 302.905 336.787 303.562 336.787 304.297C336.787 305.8 338.509 306.231 339.834 306.219Z" fill="#172031"/>
<circle cx="400.032" cy="396.825" r="13.2414" fill="#5D6679"/>
<circle cx="266.671" cy="325.89" r="9.45813" fill="#5D6679"/>
<path d="M399.332 397.637L266.918 326.701" stroke="#5D6679" stroke-width="2.83744"/>
<path d="M267.144 325.891L287.52 220.518" stroke="#5D6679" stroke-width="2.83744"/>
<path d="M287.553 220.906L418.075 239.823" stroke="#5D6679" stroke-width="2.83744"/>
<path d="M293.599 399.499C293.87 400.234 294.685 400.611 295.42 400.34C296.156 400.069 296.532 399.253 296.261 398.518L294.93 399.009L293.599 399.499ZM268.447 327.127L267.116 327.617L293.599 399.499L294.93 399.009L296.261 398.518L269.779 326.636L268.447 327.127Z" fill="#5D6679"/>
<path d="M455.641 372.748C456.357 372.428 456.678 371.589 456.359 370.874C456.039 370.159 455.2 369.837 454.485 370.157L455.063 371.452L455.641 372.748ZM402.098 395.098L402.676 396.393L455.641 372.748L455.063 371.452L454.485 370.157L401.519 393.802L402.098 395.098Z" fill="#5D6679"/>
<path d="M232.622 257.791C231.972 258.228 231.799 259.109 232.237 259.76C232.674 260.41 233.556 260.582 234.206 260.145L233.414 258.968L232.622 257.791ZM285.434 223.973L284.642 222.796L232.622 257.791L233.414 258.968L234.206 260.145L286.225 225.15L285.434 223.973Z" fill="#5D6679"/>
<rect x="396.51" y="218.135" width="46.7696" height="46.7696" rx="23.3848" fill="#2FBF94"/>
<rect x="396.51" y="218.135" width="46.7696" height="46.7696" rx="23.3848" stroke="#C3EFD5" stroke-width="3"/>
<rect x="404.964" y="226.588" width="29.8617" height="29.8617" rx="14.9309" fill="#2FBF94"/>
<path d="M415.837 246.581L411.629 242.374C411.161 241.905 410.415 241.905 409.946 242.374C409.478 242.843 409.478 243.588 409.946 244.057L414.984 249.094C415.452 249.563 416.21 249.563 416.679 249.094L429.422 236.363C429.891 235.894 429.891 235.149 429.422 234.68C428.953 234.211 428.208 234.211 427.739 234.68L415.837 246.581Z" fill="white"/>
<defs>
<filter id="filter0_d_1677_20325" x="345.221" y="270.394" width="79.0592" height="84.3268" filterUnits="userSpaceOnUse" color-interpolation-filters="sRGB">
<feFlood flood-opacity="0" result="BackgroundImageFix"/>
<feColorMatrix in="SourceAlpha" type="matrix" values="0 0 0 0 0 0 0 0 0 0 0 0 0 0 0 0 0 0 127 0" result="hardAlpha"/>
<feOffset/>
<feGaussianBlur stdDeviation="12.673"/>
<feComposite in2="hardAlpha" operator="out"/>
<feColorMatrix type="matrix" values="0 0 0 0 1 0 0 0 0 0.615686 0 0 0 0 0.0392157 0 0 0 1 0"/>
<feBlend mode="normal" in2="BackgroundImageFix" result="effect1_dropShadow_1677_20325"/>
<feBlend mode="normal" in="SourceGraphic" in2="effect1_dropShadow_1677_20325" result="shape"/>
</filter>
<filter id="filter1_d_1677_20325" x="203.851" y="183.889" width="271.965" height="301.659" filterUnits="userSpaceOnUse" color-interpolation-filters="sRGB">
<feFlood flood-opacity="0" result="BackgroundImageFix"/>
<feColorMatrix in="SourceAlpha" type="matrix" values="0 0 0 0 0 0 0 0 0 0 0 0 0 0 0 0 0 0 127 0" result="hardAlpha"/>
<feOffset/>
<feGaussianBlur stdDeviation="63.365"/>
<feComposite in2="hardAlpha" operator="out"/>
<feColorMatrix type="matrix" values="0 0 0 0 1 0 0 0 0 0.661667 0 0 0 0 0.154167 0 0 0 1 0"/>
<feBlend mode="normal" in2="BackgroundImageFix" result="effect1_dropShadow_1677_20325"/>
<feBlend mode="normal" in="SourceGraphic" in2="effect1_dropShadow_1677_20325" result="shape"/>
</filter>
<linearGradient id="paint0_linear_1677_20325" x1="389.11" y1="295.74" x2="339.414" y2="366.835" gradientUnits="userSpaceOnUse">
<stop stop-color="#FF9D0A"/>
<stop offset="0.630261" stop-color="#D43352"/>
</linearGradient>
</defs>
</svg>
