<svg width="698" height="627" viewBox="0 0 698 627" fill="none" xmlns="http://www.w3.org/2000/svg">
<rect width="698" height="627" fill="#2E3749"/>
<rect width="350" height="269" transform="translate(174 179)" fill="#2E3749"/>
<rect x="197.5" y="335.5" width="300.681" height="57.8986" rx="28.9493" stroke="url(#paint0_linear_1677_20300)" stroke-width="3"/>
<rect x="203.5" y="341.5" width="45.8986" height="45.8986" rx="22.9493" stroke="white"/>
<path d="M227.074 374.3V354.905C227.074 354.643 227.076 354.38 227.074 354.118V354.082C227.074 353.621 226.667 353.178 226.19 353.2C225.71 353.222 225.306 353.588 225.306 354.082V373.477C225.306 373.74 225.303 374.002 225.306 374.265V374.3C225.306 374.761 225.712 375.204 226.19 375.182C226.669 375.16 227.074 374.794 227.074 374.3Z" fill="#82D2FF"/>
<path d="M228.791 355.044C228.426 355.408 228.063 355.769 227.699 356.133C227.12 356.711 226.541 357.289 225.962 357.867C225.829 357.999 225.696 358.132 225.564 358.264H226.815C226.45 357.9 226.088 357.538 225.723 357.174C225.144 356.597 224.565 356.019 223.986 355.441C223.853 355.308 223.72 355.176 223.588 355.044C223.261 354.717 222.66 354.693 222.337 355.044C222.012 355.397 221.988 355.944 222.337 356.292L225.564 359.512C225.902 359.85 226.477 359.85 226.815 359.512C227.179 359.148 227.542 358.787 227.906 358.423C228.485 357.845 229.064 357.267 229.644 356.689L230.041 356.292C230.368 355.966 230.393 355.366 230.041 355.044C229.688 354.721 229.14 354.695 228.791 355.044Z" fill="#82D2FF"/>
<path d="M230.04 372.09C229.675 371.726 229.313 371.364 228.948 371C228.369 370.422 227.79 369.844 227.211 369.266C227.078 369.134 226.946 369.001 226.813 368.869C226.475 368.532 225.9 368.532 225.562 368.869C225.197 369.233 224.835 369.595 224.47 369.959C223.891 370.537 223.312 371.115 222.733 371.693C222.601 371.825 222.468 371.957 222.335 372.09C222.008 372.416 221.984 373.016 222.335 373.338C222.689 373.662 223.237 373.687 223.586 373.338L226.813 370.118H225.562C225.927 370.482 226.289 370.843 226.654 371.207C227.233 371.785 227.812 372.363 228.391 372.941C228.524 373.073 228.656 373.206 228.789 373.338C229.116 373.665 229.717 373.689 230.04 373.338C230.365 372.985 230.391 372.438 230.04 372.09Z" fill="#82D2FF"/>
<path d="M235.406 368.483C235.249 368.393 235.092 368.302 234.935 368.212C234.511 367.967 234.084 367.722 233.66 367.477C233.03 367.113 232.398 366.752 231.768 366.388C231.001 365.947 230.234 365.505 229.47 365.062C228.63 364.579 227.79 364.094 226.952 363.611C226.102 363.121 225.251 362.631 224.4 362.139C223.608 361.685 222.82 361.228 222.028 360.774C221.359 360.388 220.687 360.002 220.017 359.616C219.538 359.34 219.058 359.062 218.576 358.787C218.349 358.654 218.121 358.522 217.893 358.392C217.882 358.385 217.873 358.381 217.865 358.374C217.666 358.259 217.405 358.224 217.184 358.286C216.978 358.343 216.757 358.5 216.656 358.692C216.432 359.113 216.545 359.653 216.974 359.898C217.131 359.988 217.288 360.079 217.445 360.169C217.869 360.414 218.296 360.659 218.72 360.904C219.35 361.268 219.982 361.629 220.612 361.994C221.379 362.435 222.146 362.876 222.91 363.319C223.75 363.802 224.59 364.288 225.427 364.771C226.278 365.26 227.129 365.75 227.98 366.242C228.771 366.696 229.56 367.153 230.351 367.607C231.021 367.993 231.693 368.379 232.363 368.765C232.842 369.041 233.322 369.319 233.803 369.595C234.031 369.727 234.259 369.859 234.486 369.989C234.497 369.996 234.506 370 234.515 370.007C234.714 370.122 234.975 370.157 235.196 370.095C235.401 370.038 235.622 369.882 235.724 369.69C235.947 369.269 235.835 368.73 235.406 368.483Z" fill="#82D2FF"/>
<path d="M219.555 357.375C219.687 357.871 219.82 358.365 219.955 358.862C220.167 359.651 220.379 360.441 220.591 361.231C220.64 361.411 220.689 361.592 220.737 361.773C220.943 361.411 221.148 361.05 221.354 360.688C220.856 360.82 220.361 360.953 219.864 361.087C219.073 361.299 218.282 361.511 217.49 361.723C217.309 361.771 217.128 361.82 216.947 361.868C216.732 361.925 216.529 362.084 216.418 362.274C216.308 362.463 216.261 362.741 216.33 362.953C216.478 363.41 216.938 363.697 217.417 363.569C217.915 363.436 218.41 363.304 218.907 363.169C219.698 362.958 220.489 362.746 221.281 362.534C221.462 362.486 221.643 362.437 221.824 362.389C222.288 362.265 222.565 361.762 222.441 361.303C222.308 360.807 222.176 360.313 222.041 359.817C221.829 359.027 221.617 358.237 221.404 357.448C221.356 357.267 221.307 357.086 221.259 356.905C221.201 356.691 221.042 356.488 220.852 356.378C220.662 356.267 220.383 356.221 220.171 356.289C219.714 356.437 219.427 356.898 219.555 357.375Z" fill="#82D2FF"/>
<path d="M234.964 364.813C234.466 364.945 233.971 365.077 233.474 365.212C232.683 365.424 231.892 365.635 231.1 365.847C230.919 365.896 230.738 365.944 230.557 365.993C230.093 366.116 229.816 366.619 229.94 367.078C230.073 367.574 230.205 368.068 230.34 368.565C230.552 369.354 230.764 370.144 230.977 370.934C231.025 371.114 231.074 371.295 231.122 371.476C231.18 371.69 231.339 371.893 231.529 372.004C231.719 372.114 231.997 372.16 232.21 372.092C232.667 371.944 232.954 371.485 232.826 371.007C232.694 370.51 232.561 370.016 232.426 369.52C232.214 368.73 232.002 367.941 231.79 367.151C231.741 366.97 231.692 366.789 231.644 366.608C231.438 366.97 231.233 367.332 231.027 367.693C231.525 367.561 232.02 367.429 232.517 367.294C233.308 367.082 234.099 366.871 234.891 366.659C235.072 366.61 235.253 366.562 235.434 366.513C235.649 366.456 235.852 366.297 235.963 366.108C236.073 365.918 236.12 365.64 236.051 365.428C235.903 364.972 235.441 364.685 234.964 364.813Z" fill="#82D2FF"/>
<path d="M217.865 370.007C218.022 369.917 218.178 369.827 218.335 369.736C218.76 369.491 219.186 369.247 219.61 369.002C220.24 368.638 220.872 368.276 221.502 367.912C222.269 367.471 223.036 367.03 223.801 366.586C224.641 366.103 225.48 365.618 226.318 365.135C227.169 364.645 228.02 364.155 228.871 363.664C229.662 363.209 230.451 362.753 231.242 362.298C231.912 361.912 232.584 361.526 233.253 361.14C233.733 360.864 234.212 360.586 234.694 360.311C234.922 360.178 235.152 360.05 235.377 359.916C235.386 359.909 235.397 359.905 235.406 359.898C235.598 359.788 235.753 359.583 235.812 359.371C235.87 359.159 235.843 358.879 235.724 358.692C235.463 358.288 234.944 358.129 234.515 358.374C234.358 358.464 234.201 358.555 234.044 358.645C233.62 358.89 233.193 359.135 232.769 359.38C232.139 359.744 231.507 360.105 230.877 360.469C230.11 360.911 229.343 361.352 228.579 361.795C227.739 362.278 226.899 362.764 226.061 363.246C225.211 363.736 224.36 364.226 223.509 364.718C222.717 365.172 221.929 365.629 221.137 366.083C220.468 366.469 219.796 366.855 219.126 367.241C218.647 367.517 218.167 367.795 217.685 368.071C217.458 368.203 217.228 368.331 217.002 368.465C216.994 368.472 216.983 368.476 216.974 368.483C216.781 368.593 216.627 368.799 216.567 369.01C216.51 369.222 216.536 369.502 216.656 369.69C216.916 370.094 217.436 370.254 217.865 370.007Z" fill="#82D2FF"/>
<path d="M231.12 356.907C230.988 357.404 230.855 357.898 230.72 358.394C230.508 359.184 230.296 359.973 230.084 360.763C230.035 360.944 229.986 361.125 229.938 361.306C229.814 361.765 230.09 362.268 230.554 362.391C231.052 362.523 231.547 362.656 232.044 362.79C232.835 363.002 233.626 363.214 234.418 363.426C234.599 363.474 234.78 363.523 234.961 363.571C235.185 363.631 235.443 363.598 235.642 363.483C235.826 363.375 236 363.165 236.049 362.956C236.155 362.492 235.91 361.998 235.432 361.87C234.935 361.738 234.44 361.606 233.943 361.471C233.151 361.259 232.36 361.048 231.569 360.836C231.388 360.787 231.206 360.739 231.025 360.69C231.231 361.052 231.436 361.414 231.642 361.776C231.774 361.279 231.907 360.785 232.042 360.289C232.254 359.499 232.466 358.71 232.678 357.92C232.727 357.739 232.776 357.558 232.824 357.377C232.884 357.154 232.851 356.896 232.736 356.698C232.627 356.515 232.417 356.34 232.207 356.292C231.743 356.184 231.248 356.429 231.12 356.907Z" fill="#82D2FF"/>
<path d="M216.947 366.516C217.444 366.648 217.939 366.781 218.437 366.915C219.228 367.127 220.019 367.339 220.81 367.55C220.992 367.599 221.173 367.647 221.354 367.696C221.149 367.334 220.943 366.972 220.738 366.611C220.605 367.107 220.472 367.601 220.338 368.097C220.125 368.887 219.913 369.677 219.701 370.466C219.652 370.647 219.604 370.828 219.555 371.009C219.495 371.232 219.529 371.49 219.644 371.689C219.752 371.872 219.962 372.046 220.172 372.094C220.636 372.2 221.131 371.955 221.259 371.479C221.392 370.983 221.525 370.489 221.659 369.992C221.872 369.202 222.084 368.413 222.296 367.623C222.344 367.442 222.393 367.261 222.442 367.081C222.565 366.622 222.289 366.119 221.825 365.995C221.328 365.863 220.833 365.731 220.336 365.596C219.544 365.384 218.753 365.173 217.962 364.961C217.781 364.912 217.599 364.864 217.418 364.815C217.195 364.756 216.936 364.789 216.737 364.904C216.554 365.012 216.379 365.221 216.331 365.431C216.222 365.894 216.468 366.388 216.947 366.516Z" fill="#82D2FF"/>
<rect x="446.282" y="341.5" width="45.8986" height="45.8986" rx="22.9493" stroke="white"/>
<g filter="url(#filter0_d_1677_20300)">
<path fill-rule="evenodd" clip-rule="evenodd" d="M469.398 353.199C469.945 353.199 470.388 353.642 470.388 354.188V356.45C470.388 356.997 469.945 357.44 469.398 357.44C468.852 357.44 468.409 356.997 468.409 356.45V354.188C468.409 353.642 468.852 353.199 469.398 353.199ZM460.702 355.67C461.088 355.284 461.715 355.284 462.101 355.67L464.5 358.07C464.886 358.456 464.886 359.082 464.5 359.469C464.114 359.855 463.487 359.855 463.101 359.469L460.702 357.07C460.315 356.683 460.315 356.057 460.702 355.67ZM478.095 355.67C478.481 356.057 478.481 356.683 478.095 357.07L475.696 359.469C475.309 359.855 474.683 359.855 474.297 359.469C473.91 359.082 473.91 358.456 474.297 358.07L476.696 355.67C477.082 355.284 477.708 355.284 478.095 355.67ZM463.885 364.367C463.885 361.322 466.353 358.854 469.398 358.854C472.443 358.854 474.911 361.322 474.911 364.367C474.911 367.412 472.443 369.88 469.398 369.88C466.353 369.88 463.885 367.412 463.885 364.367ZM457.1 364.367C457.1 363.821 457.543 363.378 458.089 363.378H461.482C462.028 363.378 462.471 363.821 462.471 364.367C462.471 364.913 462.028 365.356 461.482 365.356H458.089C457.543 365.356 457.1 364.913 457.1 364.367ZM476.326 364.367C476.326 363.821 476.768 363.378 477.315 363.378H480.708C481.254 363.378 481.697 363.821 481.697 364.367C481.697 364.913 481.254 365.356 480.708 365.356H477.315C476.768 365.356 476.326 364.913 476.326 364.367ZM474.297 369.265C474.683 368.879 475.309 368.879 475.696 369.265L478.095 371.664C478.481 372.051 478.481 372.677 478.095 373.063C477.708 373.45 477.082 373.45 476.696 373.063L474.297 370.664C473.91 370.278 473.91 369.652 474.297 369.265ZM464.5 369.265C464.886 369.652 464.886 370.278 464.5 370.664L462.101 373.063C461.715 373.45 461.088 373.45 460.702 373.063C460.315 372.677 460.315 372.051 460.702 371.664L463.101 369.265C463.487 368.879 464.114 368.879 464.5 369.265ZM469.398 371.294C469.945 371.294 470.388 371.737 470.388 372.284V374.545C470.388 375.092 469.945 375.535 469.398 375.535C468.852 375.535 468.409 375.092 468.409 374.545V372.284C468.409 371.737 468.852 371.294 469.398 371.294Z" fill="#F96E4B"/>
</g>
<path d="M326.443 305.5L326.443 415" stroke="#CECECE" stroke-linecap="round" stroke-linejoin="round"/>
<path d="M444 212C450.627 212 456 217.373 456 224V270C456 276.627 450.627 282 444 282H348.014L327 299V224C327 217.373 332.373 212 339 212H444Z" fill="#364157"/>
<path d="M456 224H456.5V224H456ZM348.014 282V281.5H347.837L347.699 281.611L348.014 282ZM327 299H326.5V300.048L327.314 299.389L327 299ZM444 212V212.5C450.351 212.5 455.5 217.649 455.5 224H456H456.5C456.5 217.096 450.904 211.5 444 211.5V212ZM456 224H455.5V270H456H456.5V224H456ZM456 270H455.5C455.5 276.351 450.351 281.5 444 281.5V282V282.5C450.904 282.5 456.5 276.904 456.5 270H456ZM444 282V281.5H348.014V282V282.5H444V282ZM348.014 282L347.699 281.611L326.686 298.611L327 299L327.314 299.389L348.328 282.389L348.014 282ZM327 299H327.5V224H327H326.5V299H327ZM327 224H327.5C327.5 217.649 332.649 212.5 339 212.5V212V211.5C332.096 211.5 326.5 217.096 326.5 224H327ZM339 212V212.5H444V212V211.5H339V212Z" fill="#5D6679"/>
<path d="M345.968 253.461C346.159 253.528 346.735 253.735 347.101 253.933L356.919 257.418L366.874 253.933C367.289 253.716 367.958 253.498 368.109 253.45C368.13 253.443 368.152 253.437 368.173 253.431C369.525 253.044 370.258 252.762 371.051 252.458C371.815 252.165 372.634 251.85 374.113 251.4C376.805 250.581 375.437 248.634 374.956 247.949C374.896 247.864 374.85 247.798 374.827 247.756C374.801 247.71 374.743 247.588 374.655 247.407C374.036 246.125 371.975 241.856 370.007 239.998L369.996 239.988C367.757 237.874 366.931 237.094 365.373 235.976C364.123 235.079 362.248 234.373 362.09 234.314L362.088 234.313L362.069 234.306C361.889 234.24 359.481 233.372 356.919 233.428C354.353 233.485 352.134 234.249 351.974 234.305L351.956 234.311C351.81 234.366 349.926 235.074 348.671 235.975C347.113 237.093 346.288 237.872 344.048 239.987L344.038 239.997C342.07 241.855 340.009 246.123 339.39 247.405C339.302 247.587 339.243 247.709 339.218 247.755C339.195 247.797 339.149 247.862 339.089 247.948C338.608 248.632 337.24 250.58 339.932 251.399C341.411 251.849 342.23 252.163 342.993 252.456C343.78 252.758 344.507 253.037 345.838 253.419C345.881 253.432 345.926 253.446 345.968 253.461Z" fill="#FF2C55"/>
<path d="M371.766 231.536C371.294 229.869 370.025 227.956 367.765 229.438C365.293 231.437 366.031 232.075 361.841 235.608C357.652 239.14 369.702 242.487 369.702 242.487C369.702 242.487 373.345 237.102 371.766 231.536Z" fill="#FF2C55"/>
<path d="M342.522 231.536C342.994 229.869 344.263 227.956 346.523 229.438C348.995 231.437 348.257 232.075 352.447 235.608C356.636 239.14 344.586 242.487 344.586 242.487C344.586 242.487 340.943 237.102 342.522 231.536Z" fill="#FF2C55"/>
<path d="M349.726 256.247C350.245 256.73 352.827 259.459 353.837 260.852C354.187 261.334 354.641 261.866 355.075 262.207C355.508 262.547 356.226 262.795 357.022 262.796C357.818 262.795 358.536 262.547 358.969 262.207C359.403 261.866 359.857 261.334 360.207 260.852C361.218 259.459 363.799 256.73 364.318 256.247C365.021 255.592 365.979 254.938 368.726 254.229L373.523 252.674C374.286 252.421 374.981 251.503 374.666 250.658C374.491 250.192 374.343 249.844 374.155 249.58L374.244 249.818C374.552 250.666 373.874 251.587 373.129 251.841L368.446 253.402C365.765 254.113 364.83 254.77 364.144 255.426C363.637 255.911 361.117 258.651 360.131 260.048C359.789 260.532 359.346 261.066 358.923 261.408C358.5 261.749 357.799 261.999 357.022 262C356.245 261.999 355.544 261.749 355.122 261.408C354.698 261.066 354.255 260.532 353.913 260.048C352.927 258.651 350.407 255.911 349.9 255.426C349.215 254.77 348.279 254.113 345.598 253.402L340.916 251.841C340.171 251.587 339.492 250.666 339.801 249.818L339.889 249.58C339.701 249.844 339.553 250.192 339.379 250.658C339.063 251.503 339.758 252.421 340.521 252.674L345.318 254.229C348.065 254.938 349.023 255.592 349.726 256.247Z" fill="#CECECE"/>
<path d="M353.914 260.049C352.927 258.652 350.407 255.913 349.901 255.427C349.215 254.771 348.279 254.114 345.598 253.403L340.916 251.842C340.171 251.588 339.493 250.667 339.801 249.819C340.16 248.83 340.405 248.37 341.142 248.124C343.472 247.348 345.646 249.729 348.276 250.5C351.005 251.301 352.742 251.048 354.133 252.894C355.198 254.307 354.839 254.58 354.981 256.318C355.044 257.095 356.133 257.438 357.022 257.432C357.911 257.438 359.001 257.095 359.064 256.318C359.205 254.58 358.847 254.307 359.912 252.894C361.303 251.048 363.04 251.301 365.769 250.5C368.399 249.729 370.573 247.348 372.903 248.124C373.64 248.37 373.885 248.83 374.244 249.819C374.552 250.667 373.874 251.588 373.129 251.842L368.446 253.403C365.765 254.114 364.83 254.771 364.144 255.427C363.637 255.913 361.118 258.652 360.131 260.049C359.79 260.533 359.347 261.067 358.923 261.409C358.5 261.75 357.8 262 357.022 262.001C356.245 262 355.544 261.75 355.122 261.409C354.698 261.067 354.255 260.533 353.914 260.049Z" fill="white"/>
<path fill-rule="evenodd" clip-rule="evenodd" d="M354.679 257.858C354.997 257.72 355.38 257.84 355.534 258.126C355.693 258.421 355.889 258.617 356.107 258.742C356.326 258.868 356.605 258.945 356.971 258.951C357.345 258.957 357.637 258.883 357.867 258.756C358.097 258.629 358.302 258.428 358.465 258.126C358.619 257.84 359.002 257.72 359.321 257.858C359.639 257.996 359.773 258.34 359.619 258.626C359.367 259.095 359.008 259.476 358.539 259.735C358.07 259.994 357.529 260.109 356.948 260.1C356.386 260.091 355.866 259.969 355.416 259.711C354.967 259.452 354.625 259.08 354.38 258.626C354.226 258.34 354.36 257.996 354.679 257.858Z" fill="#172031"/>
<path d="M345.938 243.045C345.104 243.813 344.781 244.373 344.173 245.306C343.631 246.137 342.395 247.55 341.616 248.008C343.771 247.664 345.825 249.781 348.276 250.5C351.006 251.301 352.742 251.048 354.134 252.894C354.651 253.581 354.833 253.998 354.898 254.445C354.942 253.741 355.009 253.027 355.046 252.13C355.093 250.984 355.019 250.282 354.905 249.105C354.824 248.272 354.764 246.981 354.764 246.981C354.764 246.981 354.722 244.9 354.077 243.787C353.531 242.847 353.041 242.315 352.01 241.832C350.991 241.355 350.454 241.212 349.115 241.441C347.725 241.679 346.692 242.35 345.938 243.045Z" fill="#CA2243"/>
<path d="M368.107 243.045C368.941 243.813 369.264 244.373 369.872 245.306C370.414 246.137 371.649 247.55 372.429 248.008C370.274 247.664 368.22 249.781 365.769 250.5C363.039 251.301 361.303 251.048 359.911 252.894C359.394 253.581 359.212 253.998 359.147 254.445C359.103 253.741 359.036 253.027 358.999 252.13C358.952 250.984 359.026 250.282 359.14 249.105C359.221 248.272 359.281 246.981 359.281 246.981C359.281 246.981 359.322 244.9 359.968 243.787C360.513 242.847 361.004 242.315 362.035 241.832C363.054 241.355 363.591 241.212 364.929 241.441C366.32 241.679 367.353 242.35 368.107 243.045Z" fill="#CA2243"/>
<path d="M357.022 257.43C357.922 257.438 359.092 257.218 359.092 256.135C359.092 255.64 359.14 255.197 359.14 254.779C359.14 254.36 354.904 254.36 354.904 254.779C354.904 255.197 354.953 255.64 354.953 256.135C354.953 257.148 356.123 257.438 357.022 257.43Z" fill="#172031"/>
<path fill-rule="evenodd" clip-rule="evenodd" d="M348.566 248.458C348.566 247.267 349.516 246.301 350.687 246.301C351.859 246.301 352.808 247.267 352.808 248.458C352.808 248.743 352.754 248.999 352.578 249.173C352.401 249.349 352.166 249.373 351.977 249.366C351.817 249.361 351.634 249.329 351.457 249.299C351.423 249.293 351.39 249.287 351.357 249.281C351.14 249.245 350.917 249.213 350.687 249.213C350.458 249.213 350.235 249.245 350.018 249.281C349.985 249.287 349.951 249.293 349.918 249.299C349.741 249.329 349.557 249.361 349.398 249.366C349.208 249.373 348.974 249.349 348.796 249.173C348.621 248.999 348.566 248.743 348.566 248.458Z" fill="#172031"/>
<path fill-rule="evenodd" clip-rule="evenodd" d="M361.575 248.458C361.575 247.267 362.525 246.301 363.696 246.301C364.867 246.301 365.817 247.267 365.817 248.458C365.817 248.743 365.763 248.999 365.587 249.173C365.409 249.349 365.175 249.373 364.986 249.366C364.826 249.361 364.643 249.329 364.466 249.299C364.432 249.293 364.399 249.287 364.366 249.281C364.149 249.245 363.926 249.213 363.696 249.213C363.467 249.213 363.244 249.245 363.027 249.281C362.994 249.287 362.96 249.293 362.927 249.299C362.75 249.329 362.566 249.361 362.407 249.366C362.217 249.373 361.983 249.349 361.805 249.173C361.63 248.999 361.575 248.743 361.575 248.458Z" fill="#172031"/>
<path d="M391.407 247.928V245.048H398.439V247.928H391.407ZM406.208 237.8V254H402.584V241.4L399.512 243.488L397.88 241.088L402.896 237.8H406.208ZM411.729 238.109C412.804 238.109 413.644 238.459 414.249 239.16C414.864 239.851 415.171 240.859 415.171 242.184C415.171 243.451 414.864 244.445 414.249 245.165C413.635 245.885 412.795 246.245 411.729 246.245C410.654 246.245 409.814 245.894 409.209 245.194C408.604 244.493 408.302 243.485 408.302 242.17C408.302 240.893 408.604 239.899 409.209 239.189C409.824 238.469 410.664 238.109 411.729 238.109ZM411.729 239.75C411.336 239.75 411.048 239.938 410.865 240.312C410.683 240.686 410.592 241.306 410.592 242.17C410.592 243.053 410.683 243.682 410.865 244.056C411.048 244.43 411.336 244.618 411.729 244.618C412.123 244.618 412.411 244.43 412.593 244.056C412.785 243.672 412.881 243.048 412.881 242.184C412.881 241.301 412.79 240.677 412.608 240.312C412.425 239.938 412.132 239.75 411.729 239.75Z" fill="#F5F5F5"/>
<path d="M427.815 236.96C428.775 236.96 429.631 237.112 430.383 237.416C431.135 237.72 431.847 238.176 432.519 238.784L430.695 240.92C430.263 240.552 429.831 240.28 429.399 240.104C428.983 239.912 428.535 239.816 428.055 239.816C425.975 239.816 424.935 241.76 424.935 245.648C424.935 249.504 425.983 251.432 428.079 251.432C428.623 251.432 429.103 251.328 429.519 251.12C429.951 250.896 430.431 250.576 430.959 250.16L432.687 252.272C432.095 252.896 431.383 253.408 430.551 253.808C429.735 254.208 428.831 254.408 427.839 254.408C426.447 254.408 425.231 254.08 424.191 253.424C423.167 252.768 422.367 251.784 421.791 250.472C421.215 249.16 420.927 247.552 420.927 245.648C420.927 243.792 421.223 242.216 421.815 240.92C422.407 239.608 423.215 238.624 424.239 237.968C425.279 237.296 426.471 236.96 427.815 236.96Z" fill="#F5F5F5"/>
<circle cx="326.5" cy="364.5" r="16" fill="white" stroke="white"/>
<circle cx="326.5" cy="364.5" r="8.5" fill="#2E3749" stroke="white" stroke-width="2"/>
<defs>
<filter id="filter0_d_1677_20300" x="452" y="351" width="34.3809" height="34.3809" filterUnits="userSpaceOnUse" color-interpolation-filters="sRGB">
<feFlood flood-opacity="0" result="BackgroundImageFix"/>
<feColorMatrix in="SourceAlpha" type="matrix" values="0 0 0 0 0 0 0 0 0 0 0 0 0 0 0 0 0 0 127 0" result="hardAlpha"/>
<feOffset dy="4"/>
<feGaussianBlur stdDeviation="2"/>
<feComposite in2="hardAlpha" operator="out"/>
<feColorMatrix type="matrix" values="0 0 0 0 0 0 0 0 0 0 0 0 0 0 0 0 0 0 0.25 0"/>
<feBlend mode="normal" in2="BackgroundImageFix" result="effect1_dropShadow_1677_20300"/>
<feBlend mode="normal" in="SourceGraphic" in2="effect1_dropShadow_1677_20300" result="shape"/>
</filter>
<linearGradient id="paint0_linear_1677_20300" x1="199" y1="364.449" x2="493.215" y2="332.513" gradientUnits="userSpaceOnUse">
<stop stop-color="#3DC9DB"/>
<stop offset="0.511353" stop-color="#46A1E3"/>
<stop offset="1" stop-color="#F96E4B"/>
</linearGradient>
</defs>
</svg>
