<svg width="698" height="627" viewBox="0 0 698 627" fill="none" xmlns="http://www.w3.org/2000/svg">
<rect width="698" height="627" fill="#2E3749"/>
<rect width="350" height="269" transform="translate(174 179)" fill="#2E3749"/>
<rect x="211.865" y="291.02" width="180.04" height="48.8998" rx="6.66815" transform="rotate(-6.41995 211.865 291.02)" fill="#2E3749"/>
<rect x="212.418" y="291.46" width="179.04" height="47.8998" rx="6.16815" transform="rotate(-6.41995 212.418 291.46)" stroke="#5D6679" stroke-opacity="0.5"/>
<g opacity="0.6">
<g clip-path="url(#clip0_1618_19890)">
<path d="M239.196 301.559C243.042 301.953 246.229 304.99 246.681 309.004L246.963 311.509C246.505 311.668 246.023 311.78 245.522 311.837C245.353 311.856 245.185 311.865 245.018 311.872L244.721 309.224C244.349 305.925 241.561 303.49 238.331 303.497C238.516 302.803 238.809 302.149 239.196 301.559ZM238.108 305.169C240.588 305.047 242.779 306.882 243.064 309.411L243.324 311.718C240.623 311.116 238.476 308.86 238.149 305.956C238.119 305.692 238.107 305.429 238.108 305.169ZM244.03 298.584C247.69 298.173 250.99 300.806 251.402 304.465C251.687 306.998 250.513 309.358 248.55 310.708L248.337 308.817C247.842 304.419 244.597 300.995 240.509 300.087C241.477 299.28 242.684 298.736 244.03 298.584Z" fill="#FF2C55"/>
<path fill-rule="evenodd" clip-rule="evenodd" d="M239.885 323.655C241.954 323.422 243.454 321.592 243.308 319.527L247.641 319.04C249.088 318.877 250.128 317.568 249.965 316.118C249.808 314.724 248.594 313.704 247.218 313.772L246.681 309.003C246.161 304.379 242.007 301.049 237.4 301.567C232.794 302.085 229.484 306.254 230.004 310.88L230.541 315.649C229.182 315.888 228.226 317.153 228.382 318.547C228.546 319.998 229.851 321.042 231.298 320.879L235.631 320.391C235.948 322.436 237.817 323.887 239.885 323.655ZM239.664 321.686C240.648 321.575 241.37 320.726 241.343 319.749L237.595 320.17C237.787 321.129 238.68 321.797 239.664 321.686ZM244.72 309.224C244.322 305.685 241.143 303.139 237.621 303.536C234.099 303.932 231.567 307.12 231.965 310.659L232.519 315.586C232.631 316.582 231.919 317.483 230.925 317.595C230.565 317.635 230.303 317.963 230.344 318.326C230.385 318.689 230.713 318.951 231.076 318.91L247.419 317.071C247.783 317.03 248.045 316.701 248.004 316.339C247.964 315.977 247.635 315.714 247.274 315.755C246.281 315.867 245.387 315.149 245.275 314.151L244.72 309.224Z" fill="white"/>
</g>
</g>
<g opacity="0.7">
<rect opacity="0.6" x="264.158" y="298.557" width="71.1269" height="6.66815" rx="2.22272" transform="rotate(-6.41995 264.158 298.557)" fill="#5D6679"/>
<rect opacity="0.6" x="265.649" y="311.809" width="100.022" height="8.89086" rx="2.22272" transform="rotate(-6.41995 265.649 311.809)" fill="#5D6679"/>
</g>
<rect x="317.039" y="233" width="180.04" height="48.8998" rx="6.66815" transform="rotate(19.9417 317.039 233)" fill="#2E3749"/>
<rect x="317.339" y="233.641" width="179.04" height="47.8998" rx="6.16815" transform="rotate(19.9417 317.339 233.641)" stroke="#5D6679" stroke-opacity="0.6"/>
<g opacity="0.6">
<g clip-path="url(#clip1_1618_19890)">
<path d="M336.849 254.58C340.12 256.641 341.627 260.778 340.25 264.574L339.39 266.945C338.909 266.883 338.428 266.77 337.953 266.598C337.794 266.54 337.639 266.474 337.487 266.406L338.395 263.902C339.528 260.78 338.11 257.361 335.214 255.932C335.687 255.393 336.24 254.937 336.849 254.58ZM334.272 257.332C336.547 258.324 337.696 260.941 336.828 263.333L336.036 265.516C333.884 263.777 332.961 260.803 333.958 258.055C334.049 257.805 334.155 257.564 334.272 257.332ZM342.501 254.062C345.963 255.318 347.751 259.142 346.495 262.604C345.626 265 343.526 266.593 341.168 266.931L341.817 265.143C343.327 260.982 341.939 256.473 338.679 253.845C339.905 253.551 341.228 253.6 342.501 254.062Z" fill="#FF2C55"/>
<path fill-rule="evenodd" clip-rule="evenodd" d="M327.655 274.684C329.612 275.394 331.769 274.421 332.555 272.506L336.653 273.993C338.022 274.49 339.536 273.778 340.033 272.407C340.511 271.088 339.876 269.635 338.613 269.085L340.25 264.574C341.837 260.199 339.594 255.371 335.236 253.79C330.878 252.209 326.062 254.474 324.474 258.85L322.837 263.362C321.514 262.972 320.095 263.681 319.616 265C319.118 266.372 319.824 267.887 321.193 268.384L325.292 269.871C324.668 271.844 325.699 273.974 327.655 274.684ZM328.331 272.822C329.261 273.159 330.286 272.719 330.696 271.832L327.151 270.545C326.896 271.489 327.401 272.484 328.331 272.822ZM338.395 263.901C339.61 260.553 337.892 256.861 334.56 255.652C331.228 254.443 327.544 256.175 326.329 259.523L324.638 264.184C324.296 265.126 323.258 265.617 322.318 265.276C321.977 265.152 321.597 265.33 321.472 265.673C321.347 266.017 321.525 266.397 321.869 266.521L337.329 272.131C337.673 272.255 338.054 272.077 338.178 271.734C338.303 271.392 338.124 271.011 337.783 270.887C336.843 270.546 336.361 269.506 336.704 268.562L338.395 263.901Z" fill="white"/>
</g>
</g>
<rect opacity="0.2" x="360.548" y="262.973" width="71.1269" height="6.66815" rx="2.22272" transform="rotate(19.9417 360.548 262.973)" fill="#5D6679"/>
<rect opacity="0.2" x="355.999" y="275.51" width="100.022" height="8.89086" rx="2.22272" transform="rotate(19.9417 355.999 275.51)" fill="#5D6679"/>
<rect x="238.765" y="329.138" width="222.191" height="50.9302" rx="6.49111" fill="#2E3749"/>
<rect x="238.765" y="329.138" width="222.191" height="50.9302" rx="6.49111" stroke="#5D6679" stroke-width="1.24827"/>
<g clip-path="url(#clip2_1618_19890)">
<path d="M265.863 342.949C269.894 343.826 272.912 347.428 272.912 351.737V354.428C272.408 354.541 271.883 354.603 271.345 354.604C271.164 354.604 270.984 354.593 270.807 354.58V351.737C270.807 348.195 268.141 345.279 264.716 344.9C264.994 344.187 265.383 343.529 265.863 342.949ZM264.279 346.647C266.923 346.814 269.028 349.022 269.028 351.737V354.215C266.236 353.254 264.23 350.607 264.229 347.488C264.229 347.204 264.247 346.923 264.279 346.647ZM271.345 340.373C275.274 340.373 278.46 343.559 278.46 347.488C278.46 350.208 276.933 352.569 274.691 353.767V351.737C274.691 347.014 271.658 342.996 267.432 341.546C268.554 340.805 269.899 340.373 271.345 340.373Z" fill="#FF2C55"/>
<path fill-rule="evenodd" clip-rule="evenodd" d="M263.959 366.462C266.18 366.462 267.99 364.7 268.081 362.494H272.733C274.287 362.494 275.546 361.229 275.546 359.673C275.546 358.176 274.38 356.949 272.913 356.857V351.737C272.913 346.771 268.906 342.744 263.959 342.744C259.013 342.744 255.006 346.77 255.006 351.737V356.858C253.536 356.949 252.371 358.176 252.371 359.673C252.371 361.231 253.63 362.494 255.184 362.494H259.837C259.929 364.7 261.738 366.462 263.959 366.462ZM263.959 364.347C265.015 364.347 265.882 363.533 265.971 362.494H261.947C262.035 363.533 262.903 364.347 263.959 364.347ZM270.807 351.737C270.807 347.937 267.741 344.858 263.959 344.858C260.177 344.858 257.111 347.936 257.111 351.737V357.027C257.111 358.096 256.248 358.967 255.181 358.967C254.794 358.967 254.478 359.283 254.478 359.673C254.478 360.063 254.794 360.38 255.184 360.38H272.733C273.124 360.38 273.441 360.062 273.441 359.673C273.441 359.284 273.123 358.967 272.736 358.967C271.669 358.967 270.807 358.099 270.807 357.027V351.737Z" fill="white"/>
</g>
<rect x="292.69" y="342.744" width="75.896" height="7.11525" rx="2.37175" fill="#5D6679"/>
<rect x="292.69" y="356.975" width="106.729" height="9.487" rx="2.37175" fill="#5D6679"/>
<rect x="451" y="321" width="18" height="18" rx="9" fill="#5D6679"/>
<path d="M463.871 326.135C463.631 325.895 463.244 325.895 463.004 326.135L460 329.133L456.996 326.129C456.757 325.889 456.369 325.889 456.13 326.129C455.89 326.369 455.89 326.756 456.13 326.995L459.134 329.999L456.13 333.003C455.89 333.243 455.89 333.63 456.13 333.87C456.369 334.109 456.757 334.109 456.996 333.87L460 330.865L463.004 333.87C463.244 334.109 463.631 334.109 463.871 333.87C464.11 333.63 464.11 333.243 463.871 333.003L460.866 329.999L463.871 326.995C464.104 326.762 464.104 326.369 463.871 326.135V326.135Z" fill="#CECECE"/>
<defs>
<clipPath id="clip0_1618_19890">
<rect width="26.6726" height="26.6726" fill="white" transform="translate(224.151 300.82) rotate(-6.41995)"/>
</clipPath>
<clipPath id="clip1_1618_19890">
<rect width="26.6726" height="26.6726" fill="white" transform="translate(323.696 247.238) rotate(19.9417)"/>
</clipPath>
<clipPath id="clip2_1618_19890">
<rect width="28.461" height="28.461" fill="white" transform="translate(249.999 340.373)"/>
</clipPath>
</defs>
</svg>
