<svg width="698" height="627" viewBox="0 0 698 627" fill="none" xmlns="http://www.w3.org/2000/svg">
<rect width="698" height="627" fill="#2E3749"/>
<rect width="350" height="269" transform="translate(174 179)" fill="#2E3749"/>
<rect x="222.5" y="284.5" width="117" height="57" rx="8.5" fill="#2E3749"/>
<rect x="222.5" y="284.5" width="117" height="57" rx="8.5" stroke="#5D6679"/>
<path d="M254.267 301.92C256.699 301.92 258.555 302.88 259.835 304.8C261.137 306.72 261.787 309.525 261.787 313.216C261.787 316.949 261.147 319.776 259.867 321.696C258.587 323.595 256.721 324.544 254.267 324.544C251.814 324.544 249.947 323.595 248.667 321.696C247.387 319.776 246.747 316.949 246.747 313.216C246.747 309.483 247.387 306.667 248.667 304.768C249.947 302.869 251.814 301.92 254.267 301.92ZM254.267 305.568C253.649 305.568 253.158 305.792 252.795 306.24C252.454 306.688 252.198 307.467 252.027 308.576C251.857 309.664 251.771 311.211 251.771 313.216C251.771 315.243 251.857 316.811 252.027 317.92C252.198 319.029 252.454 319.808 252.795 320.256C253.158 320.683 253.649 320.896 254.267 320.896C254.886 320.896 255.377 320.683 255.739 320.256C256.102 319.808 256.358 319.04 256.507 317.952C256.678 316.843 256.763 315.264 256.763 313.216C256.763 311.189 256.678 309.632 256.507 308.544C256.337 307.435 256.07 306.667 255.707 306.24C255.366 305.792 254.886 305.568 254.267 305.568ZM275.622 302.368V305.728L268.486 324.512L264.07 323.04L270.598 306.08H262.726V302.368H275.622ZM279.711 318.88C280.521 318.88 281.193 319.157 281.727 319.712C282.26 320.267 282.527 320.928 282.527 321.696C282.527 322.485 282.26 323.157 281.727 323.712C281.193 324.267 280.521 324.544 279.711 324.544C278.9 324.544 278.228 324.267 277.695 323.712C277.183 323.157 276.927 322.485 276.927 321.696C276.927 320.928 277.193 320.267 277.727 319.712C278.26 319.157 278.921 318.88 279.711 318.88ZM279.711 307.808C280.521 307.808 281.193 308.085 281.727 308.64C282.26 309.195 282.527 309.856 282.527 310.624C282.527 311.413 282.26 312.085 281.727 312.64C281.193 313.195 280.521 313.472 279.711 313.472C278.9 313.472 278.228 313.195 277.695 312.64C277.183 312.085 276.927 311.413 276.927 310.624C276.927 309.856 277.193 309.195 277.727 308.64C278.26 308.085 278.921 307.808 279.711 307.808ZM290.819 301.92C292.184 301.92 293.368 302.165 294.371 302.656C295.395 303.147 296.163 303.819 296.675 304.672C297.208 305.504 297.475 306.432 297.475 307.456C297.475 310.08 296.088 311.787 293.315 312.576C294.787 312.747 295.95 313.269 296.803 314.144C297.678 314.997 298.115 316.235 298.115 317.856C298.115 319.072 297.816 320.192 297.219 321.216C296.643 322.219 295.779 323.029 294.627 323.648C293.496 324.245 292.142 324.544 290.563 324.544C289.091 324.544 287.79 324.267 286.659 323.712C285.528 323.157 284.526 322.347 283.651 321.28L286.307 318.816C286.99 319.52 287.619 320.032 288.195 320.352C288.792 320.651 289.454 320.8 290.179 320.8C291.054 320.8 291.758 320.523 292.291 319.968C292.824 319.392 293.091 318.592 293.091 317.568C293.091 316.459 292.814 315.659 292.259 315.168C291.726 314.656 290.926 314.4 289.859 314.4H288.291L288.835 311.008H289.891C290.766 311.008 291.459 310.763 291.971 310.272C292.483 309.76 292.739 309.045 292.739 308.128C292.739 307.317 292.515 306.688 292.067 306.24C291.619 305.792 291 305.568 290.211 305.568C288.888 305.568 287.651 306.176 286.499 307.392L284.035 304.832C285.976 302.891 288.238 301.92 290.819 301.92ZM307.736 301.92C310.168 301.92 312.024 302.88 313.304 304.8C314.605 306.72 315.256 309.525 315.256 313.216C315.256 316.949 314.616 319.776 313.336 321.696C312.056 323.595 310.189 324.544 307.736 324.544C305.283 324.544 303.416 323.595 302.136 321.696C300.856 319.776 300.216 316.949 300.216 313.216C300.216 309.483 300.856 306.667 302.136 304.768C303.416 302.869 305.283 301.92 307.736 301.92ZM307.736 305.568C307.117 305.568 306.627 305.792 306.264 306.24C305.923 306.688 305.667 307.467 305.496 308.576C305.325 309.664 305.24 311.211 305.24 313.216C305.24 315.243 305.325 316.811 305.496 317.92C305.667 319.029 305.923 319.808 306.264 320.256C306.627 320.683 307.117 320.896 307.736 320.896C308.355 320.896 308.845 320.683 309.208 320.256C309.571 319.808 309.827 319.04 309.976 317.952C310.147 316.843 310.232 315.264 310.232 313.216C310.232 311.189 310.147 309.632 309.976 308.544C309.805 307.435 309.539 306.667 309.176 306.24C308.835 305.792 308.355 305.568 307.736 305.568Z" fill="#F5F5F5"/>
<rect x="356.5" y="284.5" width="117" height="57" rx="8.5" fill="#2E3749"/>
<rect x="356.5" y="284.5" width="117" height="57" rx="8.5" stroke="#5D6679"/>
<path d="M393.551 301.92C395.961 301.92 397.807 302.677 399.087 304.192C400.367 305.685 401.007 307.733 401.007 310.336C401.007 313.259 400.559 315.68 399.663 317.6C398.788 319.499 397.444 321.024 395.631 322.176C393.817 323.328 391.449 324.235 388.527 324.896L387.535 321.44C390.073 320.757 391.972 319.904 393.231 318.88C394.511 317.835 395.353 316.373 395.759 314.496C394.649 315.819 393.316 316.48 391.759 316.48C390.735 316.48 389.785 316.192 388.911 315.616C388.057 315.04 387.375 314.219 386.863 313.152C386.351 312.064 386.095 310.805 386.095 309.376C386.095 307.84 386.415 306.517 387.055 305.408C387.716 304.277 388.612 303.413 389.743 302.816C390.873 302.219 392.143 301.92 393.551 301.92ZM393.327 313.056C394.351 313.056 395.225 312.437 395.951 311.2C395.972 309.707 395.908 308.544 395.759 307.712C395.609 306.88 395.353 306.293 394.991 305.952C394.649 305.589 394.169 305.408 393.551 305.408C392.761 305.408 392.143 305.717 391.695 306.336C391.247 306.955 391.023 307.915 391.023 309.216C391.023 310.56 391.225 311.541 391.631 312.16C392.057 312.757 392.623 313.056 393.327 313.056ZM410.658 301.92C413.09 301.92 414.946 302.88 416.226 304.8C417.527 306.72 418.178 309.525 418.178 313.216C418.178 316.949 417.538 319.776 416.258 321.696C414.978 323.595 413.111 324.544 410.658 324.544C408.205 324.544 406.338 323.595 405.058 321.696C403.778 319.776 403.138 316.949 403.138 313.216C403.138 309.483 403.778 306.667 405.058 304.768C406.338 302.869 408.205 301.92 410.658 301.92ZM410.658 305.568C410.039 305.568 409.549 305.792 409.186 306.24C408.845 306.688 408.589 307.467 408.418 308.576C408.247 309.664 408.162 311.211 408.162 313.216C408.162 315.243 408.247 316.811 408.418 317.92C408.589 319.029 408.845 319.808 409.186 320.256C409.549 320.683 410.039 320.896 410.658 320.896C411.277 320.896 411.767 320.683 412.13 320.256C412.493 319.808 412.749 319.04 412.898 317.952C413.069 316.843 413.154 315.264 413.154 313.216C413.154 311.189 413.069 309.632 412.898 308.544C412.727 307.435 412.461 306.667 412.098 306.24C411.757 305.792 411.277 305.568 410.658 305.568ZM437.247 300.992L440.223 302.752L426.815 325.248L423.871 323.488L437.247 300.992ZM425.503 301.92C427.017 301.92 428.265 302.432 429.247 303.456C430.228 304.48 430.719 305.888 430.719 307.68C430.719 309.472 430.228 310.88 429.247 311.904C428.265 312.907 427.017 313.408 425.503 313.408C424.009 313.408 422.772 312.907 421.791 311.904C420.809 310.88 420.319 309.472 420.319 307.68C420.319 305.888 420.809 304.48 421.791 303.456C422.772 302.432 424.009 301.92 425.503 301.92ZM425.503 304.832C424.863 304.832 424.404 305.077 424.127 305.568C423.871 306.059 423.743 306.763 423.743 307.68C423.743 308.597 423.871 309.301 424.127 309.792C424.404 310.283 424.863 310.528 425.503 310.528C426.143 310.528 426.591 310.283 426.847 309.792C427.124 309.301 427.263 308.597 427.263 307.68C427.263 306.763 427.124 306.059 426.847 305.568C426.591 305.077 426.143 304.832 425.503 304.832ZM438.495 313.056C440.009 313.056 441.257 313.568 442.239 314.592C443.22 315.616 443.711 317.024 443.711 318.816C443.711 320.608 443.22 322.016 442.239 323.04C441.279 324.043 440.031 324.544 438.495 324.544C437.001 324.544 435.753 324.043 434.751 323.04C433.769 322.016 433.279 320.608 433.279 318.816C433.279 317.621 433.503 316.587 433.951 315.712C434.42 314.837 435.049 314.176 435.839 313.728C436.628 313.28 437.513 313.056 438.495 313.056ZM438.495 315.968C437.833 315.968 437.375 316.213 437.119 316.704C436.863 317.173 436.735 317.877 436.735 318.816C436.735 319.733 436.863 320.437 437.119 320.928C437.396 321.397 437.855 321.632 438.495 321.632C439.156 321.632 439.615 321.397 439.871 320.928C440.127 320.459 440.255 319.755 440.255 318.816C440.255 317.877 440.127 317.173 439.871 316.704C439.615 316.213 439.156 315.968 438.495 315.968Z" fill="#F5F5F5"/>
<path d="M260.686 356.68C262.302 356.68 263.526 357.376 264.358 358.768C265.19 360.16 265.606 362.232 265.606 364.984C265.606 367.768 265.19 369.856 264.358 371.248C263.526 372.624 262.302 373.312 260.686 373.312C259.054 373.312 257.822 372.616 256.99 371.224C256.158 369.832 255.742 367.752 255.742 364.984C255.742 359.448 257.39 356.68 260.686 356.68ZM260.686 358.36C259.758 358.36 259.07 358.872 258.622 359.896C258.19 360.904 257.974 362.6 257.974 364.984C257.974 367.384 258.19 369.088 258.622 370.096C259.07 371.104 259.758 371.608 260.686 371.608C261.598 371.608 262.27 371.104 262.702 370.096C263.15 369.088 263.374 367.384 263.374 364.984C263.374 362.584 263.158 360.88 262.726 359.872C262.294 358.864 261.614 358.36 260.686 358.36ZM274.81 364.432C275.914 364.928 276.722 365.52 277.234 366.208C277.746 366.896 278.002 367.744 278.002 368.752C278.002 369.648 277.794 370.44 277.378 371.128C276.962 371.816 276.362 372.352 275.578 372.736C274.81 373.12 273.914 373.312 272.89 373.312C271.882 373.312 270.994 373.128 270.226 372.76C269.474 372.376 268.89 371.84 268.474 371.152C268.074 370.464 267.874 369.68 267.874 368.8C267.874 366.816 268.89 365.392 270.922 364.528C270.058 364.064 269.434 363.536 269.05 362.944C268.666 362.352 268.474 361.64 268.474 360.808C268.474 359.944 268.674 359.2 269.074 358.576C269.474 357.952 270.01 357.48 270.682 357.16C271.37 356.84 272.122 356.68 272.938 356.68C274.218 356.68 275.282 357.032 276.13 357.736C276.994 358.44 277.426 359.432 277.426 360.712C277.426 361.528 277.218 362.232 276.802 362.824C276.386 363.416 275.722 363.952 274.81 364.432ZM272.962 358.264C272.226 358.264 271.642 358.48 271.21 358.912C270.778 359.328 270.562 359.968 270.562 360.832C270.562 361.552 270.738 362.12 271.09 362.536C271.458 362.936 272.074 363.312 272.938 363.664L273.49 363.904C274.162 363.456 274.634 363 274.906 362.536C275.194 362.056 275.338 361.48 275.338 360.808C275.338 359.96 275.13 359.328 274.714 358.912C274.298 358.48 273.714 358.264 272.962 358.264ZM272.938 371.632C273.85 371.632 274.562 371.392 275.074 370.912C275.586 370.416 275.842 369.696 275.842 368.752C275.842 367.904 275.626 367.248 275.194 366.784C274.778 366.304 274.026 365.84 272.938 365.392L272.266 365.128C271.498 365.528 270.93 366.016 270.562 366.592C270.21 367.168 270.034 367.888 270.034 368.752C270.034 369.712 270.29 370.432 270.802 370.912C271.314 371.392 272.026 371.632 272.938 371.632ZM281.458 370.264C281.906 370.264 282.266 370.416 282.538 370.72C282.826 371.008 282.97 371.36 282.97 371.776C282.97 372.192 282.826 372.552 282.538 372.856C282.266 373.16 281.906 373.312 281.458 373.312C281.026 373.312 280.666 373.16 280.378 372.856C280.106 372.552 279.97 372.192 279.97 371.776C279.97 371.36 280.106 371.008 280.378 370.72C280.666 370.416 281.026 370.264 281.458 370.264ZM281.458 361.336C281.906 361.336 282.266 361.488 282.538 361.792C282.826 362.08 282.97 362.432 282.97 362.848C282.97 363.264 282.826 363.624 282.538 363.928C282.266 364.232 281.906 364.384 281.458 364.384C281.026 364.384 280.666 364.232 280.378 363.928C280.106 363.624 279.97 363.264 279.97 362.848C279.97 362.432 280.106 362.08 280.378 361.792C280.666 361.488 281.026 361.336 281.458 361.336ZM289.154 356.68C290.034 356.68 290.802 356.864 291.458 357.232C292.114 357.584 292.618 358.072 292.97 358.696C293.322 359.304 293.498 359.976 293.498 360.712C293.498 361.736 293.234 362.568 292.706 363.208C292.178 363.832 291.426 364.256 290.45 364.48C291.506 364.576 292.354 364.96 292.994 365.632C293.634 366.304 293.954 367.24 293.954 368.44C293.954 369.352 293.746 370.176 293.33 370.912C292.93 371.648 292.346 372.232 291.578 372.664C290.826 373.096 289.946 373.312 288.938 373.312C288.01 373.312 287.178 373.136 286.442 372.784C285.722 372.416 285.058 371.864 284.45 371.128L285.746 370.024C286.242 370.568 286.73 370.968 287.21 371.224C287.706 371.464 288.258 371.584 288.866 371.584C289.746 371.584 290.442 371.304 290.954 370.744C291.482 370.168 291.746 369.384 291.746 368.392C291.746 367.336 291.482 366.576 290.954 366.112C290.442 365.632 289.698 365.392 288.722 365.392H287.714L287.978 363.784H288.65C289.45 363.784 290.106 363.536 290.618 363.04C291.146 362.544 291.41 361.832 291.41 360.904C291.41 360.104 291.186 359.48 290.738 359.032C290.306 358.584 289.706 358.36 288.938 358.36C288.378 358.36 287.858 358.472 287.378 358.696C286.914 358.92 286.442 359.272 285.962 359.752L284.834 358.6C286.082 357.32 287.522 356.68 289.154 356.68ZM301.327 356.68C302.943 356.68 304.167 357.376 304.999 358.768C305.831 360.16 306.247 362.232 306.247 364.984C306.247 367.768 305.831 369.856 304.999 371.248C304.167 372.624 302.943 373.312 301.327 373.312C299.695 373.312 298.463 372.616 297.631 371.224C296.799 369.832 296.383 367.752 296.383 364.984C296.383 359.448 298.031 356.68 301.327 356.68ZM301.327 358.36C300.399 358.36 299.711 358.872 299.263 359.896C298.831 360.904 298.615 362.6 298.615 364.984C298.615 367.384 298.831 369.088 299.263 370.096C299.711 371.104 300.399 371.608 301.327 371.608C302.239 371.608 302.911 371.104 303.343 370.096C303.791 369.088 304.015 367.384 304.015 364.984C304.015 362.584 303.799 360.88 303.367 359.872C302.935 358.864 302.255 358.36 301.327 358.36Z" fill="#5D6679"/>
<path d="M395.888 356.944V373H393.752V359.2L390.416 361.456L389.432 360.016L393.992 356.944H395.888ZM404.448 356.68C406.064 356.68 407.288 357.376 408.12 358.768C408.952 360.16 409.368 362.232 409.368 364.984C409.368 367.768 408.952 369.856 408.12 371.248C407.288 372.624 406.064 373.312 404.448 373.312C402.816 373.312 401.584 372.616 400.752 371.224C399.92 369.832 399.504 367.752 399.504 364.984C399.504 359.448 401.152 356.68 404.448 356.68ZM404.448 358.36C403.52 358.36 402.832 358.872 402.384 359.896C401.952 360.904 401.736 362.6 401.736 364.984C401.736 367.384 401.952 369.088 402.384 370.096C402.832 371.104 403.52 371.608 404.448 371.608C405.36 371.608 406.032 371.104 406.464 370.096C406.912 369.088 407.136 367.384 407.136 364.984C407.136 362.584 406.92 360.88 406.488 359.872C406.056 358.864 405.376 358.36 404.448 358.36ZM416.963 356.68C418.579 356.68 419.803 357.376 420.635 358.768C421.467 360.16 421.883 362.232 421.883 364.984C421.883 367.768 421.467 369.856 420.635 371.248C419.803 372.624 418.579 373.312 416.963 373.312C415.331 373.312 414.099 372.616 413.267 371.224C412.435 369.832 412.019 367.752 412.019 364.984C412.019 359.448 413.667 356.68 416.963 356.68ZM416.963 358.36C416.035 358.36 415.347 358.872 414.899 359.896C414.467 360.904 414.251 362.6 414.251 364.984C414.251 367.384 414.467 369.088 414.899 370.096C415.347 371.104 416.035 371.608 416.963 371.608C417.875 371.608 418.547 371.104 418.979 370.096C419.427 369.088 419.651 367.384 419.651 364.984C419.651 362.584 419.435 360.88 419.003 359.872C418.571 358.864 417.891 358.36 416.963 358.36ZM436.535 355.984L437.951 356.824L427.919 373.696L426.503 372.856L436.535 355.984ZM427.727 356.68C428.767 356.68 429.607 357.04 430.247 357.76C430.903 358.48 431.231 359.464 431.231 360.712C431.231 361.976 430.903 362.968 430.247 363.688C429.607 364.408 428.767 364.768 427.727 364.768C426.703 364.768 425.863 364.408 425.207 363.688C424.567 362.968 424.247 361.984 424.247 360.736C424.247 359.472 424.567 358.48 425.207 357.76C425.847 357.04 426.687 356.68 427.727 356.68ZM427.727 358.096C426.543 358.096 425.951 358.976 425.951 360.736C425.951 362.48 426.543 363.352 427.727 363.352C428.367 363.352 428.823 363.12 429.095 362.656C429.367 362.192 429.503 361.544 429.503 360.712C429.503 358.968 428.911 358.096 427.727 358.096ZM436.655 365.224C437.679 365.224 438.511 365.584 439.151 366.304C439.807 367.024 440.135 368.008 440.135 369.256C440.135 370.52 439.815 371.512 439.175 372.232C438.535 372.952 437.695 373.312 436.655 373.312C435.615 373.312 434.767 372.952 434.111 372.232C433.455 371.512 433.127 370.528 433.127 369.28C433.127 368.016 433.455 367.024 434.111 366.304C434.767 365.584 435.615 365.224 436.655 365.224ZM436.655 366.64C435.455 366.64 434.855 367.52 434.855 369.28C434.855 371.024 435.455 371.896 436.655 371.896C437.295 371.896 437.743 371.664 437.999 371.2C438.271 370.736 438.407 370.088 438.407 369.256C438.407 367.512 437.823 366.64 436.655 366.64Z" fill="#5D6679"/>
<path opacity="0.4" d="M260.205 390.68C261.821 390.68 263.045 391.376 263.877 392.768C264.709 394.16 265.125 396.232 265.125 398.984C265.125 401.768 264.709 403.856 263.877 405.248C263.045 406.624 261.821 407.312 260.205 407.312C258.573 407.312 257.341 406.616 256.509 405.224C255.677 403.832 255.261 401.752 255.261 398.984C255.261 393.448 256.909 390.68 260.205 390.68ZM260.205 392.36C259.277 392.36 258.589 392.872 258.141 393.896C257.709 394.904 257.493 396.6 257.493 398.984C257.493 401.384 257.709 403.088 258.141 404.096C258.589 405.104 259.277 405.608 260.205 405.608C261.117 405.608 261.789 405.104 262.221 404.096C262.669 403.088 262.893 401.384 262.893 398.984C262.893 396.584 262.677 394.88 262.245 393.872C261.813 392.864 261.133 392.36 260.205 392.36ZM271.982 390.68C273.582 390.68 274.782 391.232 275.582 392.336C276.398 393.44 276.806 395 276.806 397.016C276.806 399.144 276.518 400.888 275.942 402.248C275.366 403.592 274.502 404.672 273.35 405.488C272.214 406.288 270.702 406.968 268.814 407.528L268.334 405.944C270.286 405.336 271.766 404.528 272.774 403.52C273.798 402.496 274.39 401.088 274.55 399.296C274.15 399.872 273.67 400.328 273.11 400.664C272.566 400.984 271.95 401.144 271.262 401.144C270.526 401.144 269.846 400.936 269.222 400.52C268.598 400.104 268.102 399.512 267.734 398.744C267.382 397.96 267.206 397.048 267.206 396.008C267.206 394.888 267.414 393.928 267.83 393.128C268.246 392.328 268.814 391.72 269.534 391.304C270.254 390.888 271.07 390.68 271.982 390.68ZM271.79 399.512C272.878 399.512 273.814 398.832 274.598 397.472C274.614 395.632 274.414 394.32 273.998 393.536C273.598 392.736 272.934 392.336 272.006 392.336C271.174 392.336 270.526 392.648 270.062 393.272C269.598 393.88 269.366 394.8 269.366 396.032C269.366 397.168 269.582 398.032 270.014 398.624C270.446 399.216 271.038 399.512 271.79 399.512ZM280.461 404.264C280.909 404.264 281.269 404.416 281.541 404.72C281.829 405.008 281.973 405.36 281.973 405.776C281.973 406.192 281.829 406.552 281.541 406.856C281.269 407.16 280.909 407.312 280.461 407.312C280.029 407.312 279.669 407.16 279.381 406.856C279.109 406.552 278.973 406.192 278.973 405.776C278.973 405.36 279.109 405.008 279.381 404.72C279.669 404.416 280.029 404.264 280.461 404.264ZM280.461 395.336C280.909 395.336 281.269 395.488 281.541 395.792C281.829 396.08 281.973 396.432 281.973 396.848C281.973 397.264 281.829 397.624 281.541 397.928C281.269 398.232 280.909 398.384 280.461 398.384C280.029 398.384 279.669 398.232 279.381 397.928C279.109 397.624 278.973 397.264 278.973 396.848C278.973 396.432 279.109 396.08 279.381 395.792C279.669 395.488 280.029 395.336 280.461 395.336ZM289.291 390.68C290.907 390.68 292.131 391.376 292.963 392.768C293.795 394.16 294.211 396.232 294.211 398.984C294.211 401.768 293.795 403.856 292.963 405.248C292.131 406.624 290.907 407.312 289.291 407.312C287.659 407.312 286.427 406.616 285.595 405.224C284.763 403.832 284.347 401.752 284.347 398.984C284.347 393.448 285.995 390.68 289.291 390.68ZM289.291 392.36C288.363 392.36 287.675 392.872 287.227 393.896C286.795 394.904 286.579 396.6 286.579 398.984C286.579 401.384 286.795 403.088 287.227 404.096C287.675 405.104 288.363 405.608 289.291 405.608C290.203 405.608 290.875 405.104 291.307 404.096C291.755 403.088 291.979 401.384 291.979 398.984C291.979 396.584 291.763 394.88 291.331 393.872C290.899 392.864 290.219 392.36 289.291 392.36ZM301.807 390.68C303.423 390.68 304.647 391.376 305.479 392.768C306.311 394.16 306.727 396.232 306.727 398.984C306.727 401.768 306.311 403.856 305.479 405.248C304.647 406.624 303.423 407.312 301.807 407.312C300.175 407.312 298.943 406.616 298.111 405.224C297.279 403.832 296.863 401.752 296.863 398.984C296.863 393.448 298.511 390.68 301.807 390.68ZM301.807 392.36C300.879 392.36 300.191 392.872 299.743 393.896C299.311 394.904 299.095 396.6 299.095 398.984C299.095 401.384 299.311 403.088 299.743 404.096C300.191 405.104 300.879 405.608 301.807 405.608C302.719 405.608 303.391 405.104 303.823 404.096C304.271 403.088 304.495 401.384 304.495 398.984C304.495 396.584 304.279 394.88 303.847 393.872C303.415 392.864 302.735 392.36 301.807 392.36Z" fill="#5D6679"/>
<path d="M261.295 252.68C262.911 252.68 264.135 253.376 264.967 254.768C265.799 256.16 266.215 258.232 266.215 260.984C266.215 263.768 265.799 265.856 264.967 267.248C264.135 268.624 262.911 269.312 261.295 269.312C259.663 269.312 258.431 268.616 257.599 267.224C256.767 265.832 256.351 263.752 256.351 260.984C256.351 255.448 257.999 252.68 261.295 252.68ZM261.295 254.36C260.367 254.36 259.679 254.872 259.231 255.896C258.799 256.904 258.583 258.6 258.583 260.984C258.583 263.384 258.799 265.088 259.231 266.096C259.679 267.104 260.367 267.608 261.295 267.608C262.207 267.608 262.879 267.104 263.311 266.096C263.759 265.088 263.983 263.384 263.983 260.984C263.983 258.584 263.767 256.88 263.335 255.872C262.903 254.864 262.223 254.36 261.295 254.36ZM276.221 252.944V254.528L270.725 269.24L268.781 268.616L274.061 254.672H267.629V252.944H276.221ZM279.372 266.264C279.82 266.264 280.18 266.416 280.452 266.72C280.74 267.008 280.884 267.36 280.884 267.776C280.884 268.192 280.74 268.552 280.452 268.856C280.18 269.16 279.82 269.312 279.372 269.312C278.94 269.312 278.58 269.16 278.292 268.856C278.02 268.552 277.884 268.192 277.884 267.776C277.884 267.36 278.02 267.008 278.292 266.72C278.58 266.416 278.94 266.264 279.372 266.264ZM279.372 257.336C279.82 257.336 280.18 257.488 280.452 257.792C280.74 258.08 280.884 258.432 280.884 258.848C280.884 259.264 280.74 259.624 280.452 259.928C280.18 260.232 279.82 260.384 279.372 260.384C278.94 260.384 278.58 260.232 278.292 259.928C278.02 259.624 277.884 259.264 277.884 258.848C277.884 258.432 278.02 258.08 278.292 257.792C278.58 257.488 278.94 257.336 279.372 257.336ZM288.202 252.68C289.818 252.68 291.042 253.376 291.874 254.768C292.706 256.16 293.122 258.232 293.122 260.984C293.122 263.768 292.706 265.856 291.874 267.248C291.042 268.624 289.818 269.312 288.202 269.312C286.57 269.312 285.338 268.616 284.506 267.224C283.674 265.832 283.258 263.752 283.258 260.984C283.258 255.448 284.906 252.68 288.202 252.68ZM288.202 254.36C287.274 254.36 286.586 254.872 286.138 255.896C285.706 256.904 285.49 258.6 285.49 260.984C285.49 263.384 285.706 265.088 286.138 266.096C286.586 267.104 287.274 267.608 288.202 267.608C289.114 267.608 289.786 267.104 290.218 266.096C290.666 265.088 290.89 263.384 290.89 260.984C290.89 258.584 290.674 256.88 290.242 255.872C289.81 254.864 289.13 254.36 288.202 254.36ZM300.717 252.68C302.333 252.68 303.557 253.376 304.389 254.768C305.221 256.16 305.637 258.232 305.637 260.984C305.637 263.768 305.221 265.856 304.389 267.248C303.557 268.624 302.333 269.312 300.717 269.312C299.085 269.312 297.853 268.616 297.021 267.224C296.189 265.832 295.773 263.752 295.773 260.984C295.773 255.448 297.421 252.68 300.717 252.68ZM300.717 254.36C299.789 254.36 299.101 254.872 298.653 255.896C298.221 256.904 298.005 258.6 298.005 260.984C298.005 263.384 298.221 265.088 298.653 266.096C299.101 267.104 299.789 267.608 300.717 267.608C301.629 267.608 302.301 267.104 302.733 266.096C303.181 265.088 303.405 263.384 303.405 260.984C303.405 258.584 303.189 256.88 302.757 255.872C302.325 254.864 301.645 254.36 300.717 254.36Z" fill="#5D6679"/>
<path opacity="0.4" d="M260.733 219.68C262.349 219.68 263.573 220.376 264.405 221.768C265.237 223.16 265.653 225.232 265.653 227.984C265.653 230.768 265.237 232.856 264.405 234.248C263.573 235.624 262.349 236.312 260.733 236.312C259.101 236.312 257.869 235.616 257.037 234.224C256.205 232.832 255.789 230.752 255.789 227.984C255.789 222.448 257.437 219.68 260.733 219.68ZM260.733 221.36C259.805 221.36 259.117 221.872 258.669 222.896C258.237 223.904 258.021 225.6 258.021 227.984C258.021 230.384 258.237 232.088 258.669 233.096C259.117 234.104 259.805 234.608 260.733 234.608C261.645 234.608 262.317 234.104 262.749 233.096C263.197 232.088 263.421 230.384 263.421 227.984C263.421 225.584 263.205 223.88 262.773 222.872C262.341 221.864 261.661 221.36 260.733 221.36ZM273.992 225.44C274.728 225.44 275.392 225.632 275.984 226.016C276.592 226.4 277.072 226.976 277.424 227.744C277.776 228.512 277.952 229.448 277.952 230.552C277.952 231.736 277.752 232.768 277.352 233.648C276.968 234.512 276.424 235.176 275.72 235.64C275.016 236.088 274.208 236.312 273.296 236.312C271.584 236.312 270.32 235.64 269.504 234.296C268.704 232.936 268.304 231.048 268.304 228.632C268.304 226.792 268.528 225.2 268.976 223.856C269.44 222.512 270.096 221.48 270.944 220.76C271.808 220.04 272.816 219.68 273.968 219.68C275.088 219.68 276.08 220.008 276.944 220.664L276.104 222.032C275.432 221.584 274.736 221.36 274.016 221.36C272.976 221.36 272.144 221.904 271.52 222.992C270.912 224.08 270.568 225.584 270.488 227.504C271.4 226.128 272.568 225.44 273.992 225.44ZM273.272 234.632C274.104 234.632 274.728 234.288 275.144 233.6C275.576 232.896 275.792 231.896 275.792 230.6C275.792 229.368 275.584 228.472 275.168 227.912C274.768 227.352 274.216 227.072 273.512 227.072C272.92 227.072 272.36 227.272 271.832 227.672C271.32 228.072 270.872 228.624 270.488 229.328C270.52 231.168 270.752 232.512 271.184 233.36C271.632 234.208 272.328 234.632 273.272 234.632ZM281.411 233.264C281.859 233.264 282.219 233.416 282.491 233.72C282.779 234.008 282.923 234.36 282.923 234.776C282.923 235.192 282.779 235.552 282.491 235.856C282.219 236.16 281.859 236.312 281.411 236.312C280.979 236.312 280.619 236.16 280.331 235.856C280.059 235.552 279.923 235.192 279.923 234.776C279.923 234.36 280.059 234.008 280.331 233.72C280.619 233.416 280.979 233.264 281.411 233.264ZM281.411 224.336C281.859 224.336 282.219 224.488 282.491 224.792C282.779 225.08 282.923 225.432 282.923 225.848C282.923 226.264 282.779 226.624 282.491 226.928C282.219 227.232 281.859 227.384 281.411 227.384C280.979 227.384 280.619 227.232 280.331 226.928C280.059 226.624 279.923 226.264 279.923 225.848C279.923 225.432 280.059 225.08 280.331 224.792C280.619 224.488 280.979 224.336 281.411 224.336ZM289.108 219.68C289.988 219.68 290.756 219.864 291.412 220.232C292.068 220.584 292.572 221.072 292.924 221.696C293.276 222.304 293.452 222.976 293.452 223.712C293.452 224.736 293.188 225.568 292.66 226.208C292.132 226.832 291.38 227.256 290.404 227.48C291.46 227.576 292.308 227.96 292.948 228.632C293.588 229.304 293.908 230.24 293.908 231.44C293.908 232.352 293.7 233.176 293.284 233.912C292.884 234.648 292.3 235.232 291.532 235.664C290.78 236.096 289.9 236.312 288.892 236.312C287.964 236.312 287.132 236.136 286.396 235.784C285.676 235.416 285.012 234.864 284.404 234.128L285.7 233.024C286.196 233.568 286.684 233.968 287.164 234.224C287.66 234.464 288.212 234.584 288.82 234.584C289.7 234.584 290.396 234.304 290.908 233.744C291.436 233.168 291.7 232.384 291.7 231.392C291.7 230.336 291.436 229.576 290.908 229.112C290.396 228.632 289.652 228.392 288.676 228.392H287.668L287.932 226.784H288.604C289.404 226.784 290.06 226.536 290.572 226.04C291.1 225.544 291.364 224.832 291.364 223.904C291.364 223.104 291.14 222.48 290.692 222.032C290.26 221.584 289.66 221.36 288.892 221.36C288.332 221.36 287.812 221.472 287.332 221.696C286.868 221.92 286.396 222.272 285.916 222.752L284.788 221.6C286.036 220.32 287.476 219.68 289.108 219.68ZM301.28 219.68C302.896 219.68 304.12 220.376 304.952 221.768C305.784 223.16 306.2 225.232 306.2 227.984C306.2 230.768 305.784 232.856 304.952 234.248C304.12 235.624 302.896 236.312 301.28 236.312C299.648 236.312 298.416 235.616 297.584 234.224C296.752 232.832 296.336 230.752 296.336 227.984C296.336 222.448 297.984 219.68 301.28 219.68ZM301.28 221.36C300.352 221.36 299.664 221.872 299.216 222.896C298.784 223.904 298.568 225.6 298.568 227.984C298.568 230.384 298.784 232.088 299.216 233.096C299.664 234.104 300.352 234.608 301.28 234.608C302.192 234.608 302.864 234.104 303.296 233.096C303.744 232.088 303.968 230.384 303.968 227.984C303.968 225.584 303.752 223.88 303.32 222.872C302.888 221.864 302.208 221.36 301.28 221.36Z" fill="#5D6679"/>
<path d="M401.638 260.432C402.742 260.928 403.55 261.52 404.062 262.208C404.574 262.896 404.83 263.744 404.83 264.752C404.83 265.648 404.622 266.44 404.206 267.128C403.79 267.816 403.19 268.352 402.406 268.736C401.638 269.12 400.742 269.312 399.718 269.312C398.71 269.312 397.822 269.128 397.054 268.76C396.302 268.376 395.718 267.84 395.302 267.152C394.902 266.464 394.702 265.68 394.702 264.8C394.702 262.816 395.718 261.392 397.75 260.528C396.886 260.064 396.262 259.536 395.878 258.944C395.494 258.352 395.302 257.64 395.302 256.808C395.302 255.944 395.502 255.2 395.902 254.576C396.302 253.952 396.838 253.48 397.51 253.16C398.198 252.84 398.95 252.68 399.766 252.68C401.046 252.68 402.11 253.032 402.958 253.736C403.822 254.44 404.254 255.432 404.254 256.712C404.254 257.528 404.046 258.232 403.63 258.824C403.214 259.416 402.55 259.952 401.638 260.432ZM399.79 254.264C399.054 254.264 398.47 254.48 398.038 254.912C397.606 255.328 397.39 255.968 397.39 256.832C397.39 257.552 397.566 258.12 397.918 258.536C398.286 258.936 398.902 259.312 399.766 259.664L400.318 259.904C400.99 259.456 401.462 259 401.734 258.536C402.022 258.056 402.166 257.48 402.166 256.808C402.166 255.96 401.958 255.328 401.542 254.912C401.126 254.48 400.542 254.264 399.79 254.264ZM399.766 267.632C400.678 267.632 401.39 267.392 401.902 266.912C402.414 266.416 402.67 265.696 402.67 264.752C402.67 263.904 402.454 263.248 402.022 262.784C401.606 262.304 400.854 261.84 399.766 261.392L399.094 261.128C398.326 261.528 397.758 262.016 397.39 262.592C397.038 263.168 396.862 263.888 396.862 264.752C396.862 265.712 397.118 266.432 397.63 266.912C398.142 267.392 398.854 267.632 399.766 267.632ZM412.03 252.68C413.646 252.68 414.87 253.376 415.702 254.768C416.534 256.16 416.95 258.232 416.95 260.984C416.95 263.768 416.534 265.856 415.702 267.248C414.87 268.624 413.646 269.312 412.03 269.312C410.398 269.312 409.166 268.616 408.334 267.224C407.502 265.832 407.086 263.752 407.086 260.984C407.086 255.448 408.734 252.68 412.03 252.68ZM412.03 254.36C411.102 254.36 410.414 254.872 409.966 255.896C409.534 256.904 409.318 258.6 409.318 260.984C409.318 263.384 409.534 265.088 409.966 266.096C410.414 267.104 411.102 267.608 412.03 267.608C412.942 267.608 413.614 267.104 414.046 266.096C414.494 265.088 414.718 263.384 414.718 260.984C414.718 258.584 414.502 256.88 414.07 255.872C413.638 254.864 412.958 254.36 412.03 254.36ZM431.601 251.984L433.017 252.824L422.985 269.696L421.569 268.856L431.601 251.984ZM422.793 252.68C423.833 252.68 424.673 253.04 425.313 253.76C425.969 254.48 426.297 255.464 426.297 256.712C426.297 257.976 425.969 258.968 425.313 259.688C424.673 260.408 423.833 260.768 422.793 260.768C421.769 260.768 420.929 260.408 420.273 259.688C419.633 258.968 419.313 257.984 419.313 256.736C419.313 255.472 419.633 254.48 420.273 253.76C420.913 253.04 421.753 252.68 422.793 252.68ZM422.793 254.096C421.609 254.096 421.017 254.976 421.017 256.736C421.017 258.48 421.609 259.352 422.793 259.352C423.433 259.352 423.889 259.12 424.161 258.656C424.433 258.192 424.569 257.544 424.569 256.712C424.569 254.968 423.977 254.096 422.793 254.096ZM431.721 261.224C432.745 261.224 433.577 261.584 434.217 262.304C434.873 263.024 435.201 264.008 435.201 265.256C435.201 266.52 434.881 267.512 434.241 268.232C433.601 268.952 432.761 269.312 431.721 269.312C430.681 269.312 429.833 268.952 429.177 268.232C428.521 267.512 428.193 266.528 428.193 265.28C428.193 264.016 428.521 263.024 429.177 262.304C429.833 261.584 430.681 261.224 431.721 261.224ZM431.721 262.64C430.521 262.64 429.921 263.52 429.921 265.28C429.921 267.024 430.521 267.896 431.721 267.896C432.361 267.896 432.809 267.664 433.065 267.2C433.337 266.736 433.473 266.088 433.473 265.256C433.473 263.512 432.889 262.64 431.721 262.64Z" fill="#5D6679"/>
<path opacity="0.4" d="M404.127 219.944V221.528L398.631 236.24L396.687 235.616L401.967 221.672H395.535V219.944H404.127ZM410.764 219.68C412.38 219.68 413.604 220.376 414.436 221.768C415.268 223.16 415.684 225.232 415.684 227.984C415.684 230.768 415.268 232.856 414.436 234.248C413.604 235.624 412.38 236.312 410.764 236.312C409.132 236.312 407.9 235.616 407.068 234.224C406.236 232.832 405.82 230.752 405.82 227.984C405.82 222.448 407.468 219.68 410.764 219.68ZM410.764 221.36C409.836 221.36 409.148 221.872 408.7 222.896C408.268 223.904 408.052 225.6 408.052 227.984C408.052 230.384 408.268 232.088 408.7 233.096C409.148 234.104 409.836 234.608 410.764 234.608C411.676 234.608 412.348 234.104 412.78 233.096C413.228 232.088 413.452 230.384 413.452 227.984C413.452 225.584 413.236 223.88 412.804 222.872C412.372 221.864 411.692 221.36 410.764 221.36ZM430.336 218.984L431.752 219.824L421.72 236.696L420.304 235.856L430.336 218.984ZM421.528 219.68C422.568 219.68 423.408 220.04 424.048 220.76C424.704 221.48 425.032 222.464 425.032 223.712C425.032 224.976 424.704 225.968 424.048 226.688C423.408 227.408 422.568 227.768 421.528 227.768C420.504 227.768 419.664 227.408 419.008 226.688C418.368 225.968 418.048 224.984 418.048 223.736C418.048 222.472 418.368 221.48 419.008 220.76C419.648 220.04 420.488 219.68 421.528 219.68ZM421.528 221.096C420.344 221.096 419.752 221.976 419.752 223.736C419.752 225.48 420.344 226.352 421.528 226.352C422.168 226.352 422.624 226.12 422.896 225.656C423.168 225.192 423.304 224.544 423.304 223.712C423.304 221.968 422.712 221.096 421.528 221.096ZM430.456 228.224C431.48 228.224 432.312 228.584 432.952 229.304C433.608 230.024 433.936 231.008 433.936 232.256C433.936 233.52 433.616 234.512 432.976 235.232C432.336 235.952 431.496 236.312 430.456 236.312C429.416 236.312 428.568 235.952 427.912 235.232C427.256 234.512 426.928 233.528 426.928 232.28C426.928 231.016 427.256 230.024 427.912 229.304C428.568 228.584 429.416 228.224 430.456 228.224ZM430.456 229.64C429.256 229.64 428.656 230.52 428.656 232.28C428.656 234.024 429.256 234.896 430.456 234.896C431.096 234.896 431.544 234.664 431.8 234.2C432.072 233.736 432.208 233.088 432.208 232.256C432.208 230.512 431.624 229.64 430.456 229.64Z" fill="#5D6679"/>
<rect x="320" y="275" width="26" height="26" rx="13" fill="#FF2C55"/>
<path fill-rule="evenodd" clip-rule="evenodd" d="M332.472 289.148C332.242 289.013 332.1 288.767 332.1 288.5V285C332.1 284.586 332.436 284.25 332.85 284.25C333.264 284.25 333.6 284.586 333.6 285V288.069L336.228 289.602C336.586 289.811 336.706 290.27 336.498 290.628C336.289 290.986 335.83 291.107 335.472 290.898L332.472 289.148ZM333 294C336.314 294 339 291.314 339 288C339 284.686 336.314 282 333 282C329.686 282 327 284.686 327 288C327 291.314 329.686 294 333 294ZM333 295.5C337.142 295.5 340.5 292.142 340.5 288C340.5 283.858 337.142 280.5 333 280.5C328.858 280.5 325.5 283.858 325.5 288C325.5 292.142 328.858 295.5 333 295.5Z" fill="white"/>
<rect x="454" y="275" width="26" height="26" rx="13" fill="#2FBF94"/>
<path fill-rule="evenodd" clip-rule="evenodd" d="M468.121 280.35C468.373 280.35 468.621 280.415 468.838 280.559C469.049 280.7 469.178 280.881 469.255 281.035C469.33 281.185 469.363 281.324 469.379 281.418C469.386 281.464 469.391 281.505 469.393 281.539L469.394 281.543L469.397 281.69L468.784 285.975H470.372C470.755 285.975 471.201 286.114 471.468 286.529C471.706 286.899 471.689 287.328 471.537 287.643L471.536 287.645L471.47 287.787L471.453 287.816C469.976 290.4 468.87 292.338 468.133 293.631C467.768 294.271 467.494 294.753 467.31 295.076L467.307 295.082L466.555 296.163L466.545 296.17C466.409 296.271 466.178 296.4 465.872 296.4C465.621 296.4 465.372 296.334 465.156 296.19C464.945 296.049 464.815 295.868 464.739 295.714C464.666 295.57 464.633 295.436 464.617 295.342L464.615 295.334L464.597 295.056L465.209 290.775H463.622C463.329 290.775 462.669 290.697 462.421 290.041C462.318 289.768 462.346 289.517 462.385 289.355C462.424 289.19 462.491 289.048 462.551 288.941L462.551 288.941L464.836 284.921C465.461 283.824 466.164 282.588 466.947 281.211L466.949 281.207L466.951 281.204C466.96 281.185 466.971 281.163 466.984 281.139C467.014 281.083 467.059 281.005 467.119 280.922L467.125 280.913L467.429 280.593L467.434 280.59C467.568 280.487 467.804 280.35 468.121 280.35ZM468.05 283.114L468.051 283.11L468.052 283.098L468.058 283.053C468.063 283.013 468.071 282.957 468.079 282.889C468.094 282.753 468.113 282.572 468.126 282.39C468.139 282.207 468.145 282.025 468.136 281.887C468.131 281.817 468.123 281.763 468.111 281.727C468.106 281.711 468.102 281.702 468.098 281.696C468.082 281.696 468.051 281.705 468.001 281.746C467.947 281.79 467.89 281.856 467.836 281.926C467.783 281.997 467.736 282.069 467.702 282.124C467.684 282.151 467.671 282.174 467.661 282.19L467.651 282.209L467.648 282.214L467.647 282.216C467.268 282.882 466.961 283.475 466.67 284.037L466.669 284.038C466.406 284.547 466.155 285.031 465.876 285.52L465.872 285.527C464.988 287.081 464.263 288.354 463.699 289.351L463.573 289.575H466.593L465.876 294.59L465.875 294.591L465.875 294.594L465.872 294.606C465.869 294.617 465.866 294.633 465.862 294.653C465.854 294.691 465.847 294.743 465.844 294.795C465.841 294.849 465.845 294.898 465.856 294.934C465.867 294.97 465.881 294.983 465.896 294.987C465.91 294.992 465.929 294.991 465.959 294.969C465.99 294.947 466.023 294.91 466.053 294.867C466.083 294.823 466.108 294.778 466.125 294.743C466.134 294.725 466.141 294.711 466.146 294.7L466.151 294.689L466.152 294.686L466.152 294.685L466.156 294.677L466.262 294.491C466.446 294.168 466.722 293.683 467.09 293.036C467.81 291.773 468.883 289.894 470.309 287.399L470.438 287.175H467.399L468.05 283.114Z" fill="white"/>
</svg>
